<svg width="25" height="24" viewBox="0 0 25 24" fill="none" xmlns="http://www.w3.org/2000/svg">
<path d="M17.0057 2H7.00574C4.24431 2 2.00574 4.23858 2.00574 7V17C2.00574 19.7614 4.24431 22 7.00574 22H17.0057C19.7672 22 22.0057 19.7614 22.0057 17V7C22.0057 4.23858 19.7672 2 17.0057 2Z" stroke="#BB2424" stroke-width="2" stroke-linecap="round" stroke-linejoin="round"/>
<path d="M16.0057 11.3698C16.1291 12.2021 15.9869 13.052 15.5994 13.7988C15.2119 14.5456 14.5988 15.1512 13.8473 15.5295C13.0958 15.9077 12.2441 16.0394 11.4135 15.9057C10.5828 15.7721 9.81545 15.3799 9.22053 14.785C8.62561 14.1901 8.23342 13.4227 8.09976 12.592C7.96609 11.7614 8.09775 10.9097 8.47601 10.1582C8.85428 9.40667 9.45987 8.79355 10.2067 8.40605C10.9535 8.01856 11.8034 7.8764 12.6357 7.99981C13.4846 8.1257 14.2705 8.52128 14.8774 9.12812C15.4842 9.73496 15.8798 10.5209 16.0057 11.3698Z" stroke="#BB2424" stroke-width="2" stroke-linecap="round" stroke-linejoin="round"/>
<path d="M17.5057 6.5H17.5157" stroke="#BB2424" stroke-width="2" stroke-linecap="round" stroke-linejoin="round"/>
</svg>
