<svg width="25" height="24" viewBox="0 0 25 24" fill="none" xmlns="http://www.w3.org/2000/svg">
<path d="M16.0057 8C17.597 8 19.1232 8.63214 20.2484 9.75736C21.3736 10.8826 22.0057 12.4087 22.0057 14V21H18.0057V14C18.0057 13.4696 17.795 12.9609 17.42 12.5858C17.0449 12.2107 16.5362 12 16.0057 12C15.4753 12 14.9666 12.2107 14.5915 12.5858C14.2165 12.9609 14.0057 13.4696 14.0057 14V21H10.0057V14C10.0057 12.4087 10.6379 10.8826 11.7631 9.75736C12.8883 8.63214 14.4144 8 16.0057 8V8Z" stroke="#BB2424" stroke-width="2" stroke-linecap="round" stroke-linejoin="round"/>
<path d="M6.00574 9H2.00574V21H6.00574V9Z" stroke="#BB2424" stroke-width="2" stroke-linecap="round" stroke-linejoin="round"/>
<path d="M4.00574 6C5.11031 6 6.00574 5.10457 6.00574 4C6.00574 2.89543 5.11031 2 4.00574 2C2.90117 2 2.00574 2.89543 2.00574 4C2.00574 5.10457 2.90117 6 4.00574 6Z" stroke="#BB2424" stroke-width="2" stroke-linecap="round" stroke-linejoin="round"/>
</svg>
