<?xml version="1.0" encoding="UTF-8"?><svg id="Layer_2" xmlns="http://www.w3.org/2000/svg" viewBox="0 0 129.68 158.14"><defs><style>.cls-1{fill:#bb2524;}</style></defs><g id="Layer_1-2"><g><path class="cls-1" d="M8.81,157.68c-.13,.46,.31,.37,.37,.46,.07-.8-.48-.46-.37-.46Z"/><polygon class="cls-1" points="9.62 149.69 9.75 149.86 9.65 148.62 9.62 149.69"/><path class="cls-1" d="M11.68,142.48c-.88,.47-.69,2.63-1.28,3.84l-.21,.17,.4,.73c.31-1.59,.59-3.71,1.1-4.75Z"/><path class="cls-1" d="M14.38,139.19c-.34,.14,.04-.89-.37,.85,.06-.08,.08-.09,.12-.14,.05-.15,.12-.36,.25-.71Z"/><path class="cls-1" d="M14.12,139.9c-.23,.75,.38-.41,0,0h0Z"/><path class="cls-1" d="M15.17,136.44l-.12,1.05c.23-.15,.58-.99,.57-.63,.23-1.03,0-.89-.45-.42Z"/><path class="cls-1" d="M15.01,135.34l-.09,.54c.1-.06,.17-.19,.09-.54Z"/><path class="cls-1" d="M14.75,137.02l.18-1.14c-.16,.1-.38,.04-.1,.52-.17-.16-.05,.12-.08,.62Z"/><path class="cls-1" d="M14.42,137.59c-.35,.49-.69,1.17-.57,.11-.54,1.91,.01,1.79,.57-.11Z"/><path class="cls-1" d="M11.08,141.9l-.43,.69,.03,.72c-.02-.36,.62-1.39,.39-1.41Z"/><path class="cls-1" d="M17.83,130.61c-.12-.12-.51,.16-.71,.16l-.12,.77c.24-.32,.6-.98,.83-.93Z"/><path class="cls-1" d="M17.11,130.77c.06-.39,.14-.77,.2-1.15-.44,.92-.38,1.15-.2,1.15Z"/><polygon class="cls-1" points="14.33 134.89 14.2 136.85 14.45 134.55 14.33 134.89"/><path class="cls-1" d="M19.57,126.64l.06,.73c-.01-.42,0-.84,0-1.26l-.05,.53Z"/><path class="cls-1" d="M20.73,124.01c.06,.56,.72-.38,.67,.15,.27-.73,.36-1.43,.42-2.06-.17,.63-.52,1.21-1.09,1.91Z"/><path class="cls-1" d="M21.98,121.06c-.08,.32-.12,.67-.16,1.05,.09-.33,.15-.67,.16-1.05Z"/><path class="cls-1" d="M18.16,127.87c.12-.04,.41-.1,.75-.65l-.57,.24-.18,.41Z"/><path class="cls-1" d="M18.32,127.46h.02l.41-.89-.43,.89Z"/><path class="cls-1" d="M18.11,127.97l.05-.1c-.06,.02-.08,.04-.05,.1Z"/><path class="cls-1" d="M15.78,132.23c.03-.71,.31-2.12-.53-.99,.09,.56,.57-.09,.53,.99Z"/><path class="cls-1" d="M17.4,128.27l-.57,1.08c.11,.02,.35-.11,.33,.24l.24-1.31Z"/><polygon class="cls-1" points="17.51 127.67 17.4 128.27 17.61 127.87 17.51 127.67"/><path class="cls-1" d="M20.7,122.73c.07-.55,.31-1.07,.57-1.66-.39,.58-.75,1.2-1.05,1.81,.08,.15,.16,.52,.48-.15Z"/><path class="cls-1" d="M19.49,125.01l.03-.12c-.06,.05-.1,.1-.03,.12Z"/><polygon class="cls-1" points="24.25 115.44 24.13 115.49 24.18 115.54 24.25 115.44"/><path class="cls-1" d="M20.1,122.95c-.3,.44-.33,.77-.34,1.09,.13-.37,.28-.76,.46-1.16-.04-.07-.07-.09-.12,.07Z"/><path class="cls-1" d="M22.6,119.38c-.2,.2-.41,.44-.61,.7,.24-.18,.67-.56,.61-.7Z"/><path class="cls-1" d="M19.7,124.78l-.02,.08c.16-.12,.11-.12,.02-.08Z"/><path class="cls-1" d="M19.7,124.78c.06-.27,.05-.5,.06-.74-.1,.3-.19,.59-.24,.85,.05-.05,.12-.08,.18-.11Z"/><path class="cls-1" d="M22.83,112.4c.3,.28-.09,1.66-1.04,2.51-.3,1.19,1.21,1.12,2.33,.59-.13-.12-.27-.19,.12-1.35-.41,.25-1.75,2.08-1.57,1.02,.6-1.5,.77-1.07,1.34-1.64-.76,.33,.4-2.13-.4-2.19l-.49,1.35c-.11-.03-.01-.57-.3-.28Z"/><path class="cls-1" d="M23.01,117.48l-.19,.46c.33-.46,.66-.74,1.28-1.24,.22-.81,.17-1.04,.08-1.15l-1.2,2.11,.03-.18Z"/><path class="cls-1" d="M21.79,119.9c-.22-.54,.18-1.68-.58-1.25-.63,1.32-.14,1.08-.36,1.94,.96-2.14-.09,.71,.89-.69-.14,.44-.31,.82-.46,1.18,.24-.35,.48-.68,.72-.99l-.05,.04h0c-.09,.07-.14,.09-.06,0,0,0,0-.04,.01-.05-.05-.04-.07-.1-.1-.17,.38-.56,.15-.04,.1,.17,.02,.02,.02,.04,.04,.05h0c.27-.74,.57-1.46,.88-2.18-.28,.41-.59,.95-1.03,1.96Z"/><path class="cls-1" d="M14.86,129.72c.06-.05,.09-.04,.12-.03,0-.16,0-.23-.12,.03Z"/><path class="cls-1" d="M15.48,128.92c-.01,.18,.09,.38-.17,.88-.3,.4-.19-.08-.33-.11-.02,.36-.15,1.21,.43,.31v-.18c.52-.82,1.5-1.73,1.49-1.55-.47,.1-.82,.22-1.42,.65Z"/><path class="cls-1" d="M18.49,124.23l.64-1.87-.76,.75,.22,.05c-.55,.98-.2,.87-.1,1.07Z"/><polygon class="cls-1" points="24.54 115.35 24.81 115.79 24.81 114.51 24.54 115.35"/><polygon class="cls-1" points="25.76 113.13 26.06 113.41 26.18 112.72 25.76 113.13"/><path class="cls-1" d="M83.23,110.04l-.6-.29c.28,.15,.46,.24,.6,.29Z"/><path class="cls-1" d="M87.46,112.27l.18-.14c-.24,.02-.36,.06-.18,.14Z"/><path class="cls-1" d="M69.92,73.44c.86,.16,1.78,.65,1.62,.22l-.3-.4c-.52,.13-.95,.2-1.32,.18Z"/><path class="cls-1" d="M105.25,88.63l.03-.28-.6-.39c.17,.2,.36,.43,.57,.66Z"/><path class="cls-1" d="M107.16,88.65l.03,1.25c.03-.29,.02-.69-.03-1.25Z"/><path class="cls-1" d="M72.09,88.33l-.5-.67c.1,1.11,.28,.6,.5,.67Z"/><path class="cls-1" d="M40.68,92.08c.6-.42,1.05-.78,1.4-1.13-.77,.46-1.52,.71-1.4,1.13Z"/><path class="cls-1" d="M87.06,107c-.31-.09-.47-.09-.51,0,.32,.1,.51,.13,.51,0Z"/><path class="cls-1" d="M43.49,89.46c-.12,.06-.22,.13-.34,.19-.31,.42-.62,.85-1.07,1.29,.57-.33,1.13-.79,1.41-1.49Z"/><path class="cls-1" d="M99.39,10.34c.06-.02,.13-.07,.18-.08-.02-.06-.09,0-.18,.08Z"/><path class="cls-1" d="M122.99,3.62c-.22,.08-.58,.17-.92,.26,.17-.01,.45-.08,.92-.26Z"/><path class="cls-1" d="M31.35,104.65c-.28,.45,0,.1,0,0h0Z"/><path class="cls-1" d="M28.48,105.87c.02-.12,.02-.23-.06-.3,.06,.09,.08,.19,.06,.3Z"/><path class="cls-1" d="M45.48,83.81l.04-.03c-.18,.04-.15,.04-.04,.03Z"/><path class="cls-1" d="M30.73,105.2c.15-.14,.33-.3,.5-.49-.09,.07-.25,.22-.5,.49Z"/><path class="cls-1" d="M30.96,105.23l-.29,.37c.02,.1,.09,.07,.29-.37Z"/><path class="cls-1" d="M31.76,104.03c-.17,.25-.35,.48-.53,.68,.08-.07,.13-.09,.13-.06l.41-.62Z"/><path class="cls-1" d="M76.6,49.3s.04-.07,.07-.1c-.04-.59-.07-.34-.07,.1Z"/><path class="cls-1" d="M83.94,69.2s-.04,0-.07,0l.08,.03v-.04Z"/><path class="cls-1" d="M86.04,69.39c-.99,.24-1.46,.11-2.08-.15l.37,1.36c.56-.44,1.13-.83,1.71-1.21Z"/><path class="cls-1" d="M75.85,101.61c.12,.51,.23,1.02,.38,1.53-1.48-1.32-1.8-2.73-1.69-1.13,.66-.19,1.36,1.14,2.2,2.41,.89,1.3,1.94,2.47,2.52,2.09l.49,.95c-.19-.23-.28-.21-.47-.43,.44,.97,.92,1.05,1.44,1.13,.52,.09,1.13,.14,2.06,.98,.65,.58,1.05,1.11,.47,.89,.6,.3,1.25,.51,1.86,.76,.5,.28,.26,.44-.23,.14,.45,.23,.92,.43,1.38,.64,.47,.19,.95,.36,1.43,.53l-.03,.03c.5-.07,1.51-.06,2-.11,.7,.36-.41,.06-.26,.26,.58,0,1.13,.06,1.7,0,.31,.22,.12,.37-.31,.44-.43,.06-1.08-.03-1.65-.18,.62,.83,1.02,.86,1.64,.79,.64-.08,1.44-.13,3.26,.18-.57,.12-1.13,.12-1.71,.17,.53,.39,1.16,.57,1.92,.58,.76,.06,1.61-.03,2.69-.01-.28-.07-1.36-.15-2.07-.4-.72-.26-1.06-.56-.13-.8,.27,.04,.59,.02,.96-.06,.37-.08,.8-.19,1.25-.48,.13,.45,1.12,.1,2.27-.47l.18,.62c1.23-.78,.93-1.08,1.49-1.71,1.27-.82,1.83-.67,2.38-.61,.99-.84,.51-.67,.08-.58-.44,.09-.81,.11,.18-.93,1.56-1.3,2.17-2.69,2.82-4.9,.76-1.13,.27,.38,.63,.01,.01-.44-.01-.88-.02-1.3,.12-.26,.23-.12,.29-.05,.15-1-.56-.3-.27-1.8-.27-.29,.15-.96,.58-1.86,.41-.9,.77-2.07,.4-3.03,.19-.46,.39,.24,.64,.11-.23-1.34-.37-1.89-.53-2.38-.14-.49-.34-.93-.85-1.9,.02-.6,0-1.2-.01-1.82-.17,1.39-1.06-.14-1.94-1.27-.04,.48-.17,.9-.2,1.16-.24-.68-.69-1.27-1.03-1.9,0-.28,.28-.17,.66,.07-.1-.12-.2-.23-.29-.31-.06-.81,.42-.59,.96-.19-.02,.3-.04,.6-.07,.89,.28,.19,.58,.37,.83,.49,.24,.12,.46,.16,.62,.05-.1-.13-.26-.38-.41-.67,.15,.1,.28,.17,.31,.08,.04-.1-.19-.28-.48-.58l.47-.75-.31-.02c-.13-.5-.22-1.03-.39-1.52l-.55-1.48c-.81-.84-1.81-1.41-2.79-2.12l-.75-.55c-.27-.17-.55-.36-.83-.56-.57-.39-1.1-.89-1.76-1.39,.97,.18,.74-.48,1.2-.9,.12,.55,.58,1.01,1.2,1.49,.31,.24,.64,.5,.98,.79,.3,.31,.59,.66,.82,1.05-.49-.81-.14-.82,.09-.68l-.59-.57-.65-.51-1.29-1c.42-.3-.17-.78-.67-1.49-.23,1.16-2.17-1.16-3.44-1.61,.13-.31,.6-.42,1.8,.62-.45-.84-1.1-.94-1.72-1.03-.63-.08-1.23-.16-1.78-.85,.33,.19,.47,.34,.7,.28-.92-.22-2.64-1.55-2.06-1.54l.33,.19c-.52-.38-1.24-.73-2-1.11-.38-.18-.78-.37-1.17-.55-.4-.17-.82-.29-1.21-.42-.8-.24-1.52-.47-2.11-.51-.59-.05-1.01,0-1.16,.18,0-.11,.62-.88,.82-1-.88,.23-1.72,.47-2.54,.73-.83,.31-1.64,.62-2.42,.94,.53-.63-.64-2.66,1.5-2.62-.58-.2-1.29-.57-2.61-.45,.4,.16,.85,1.18,.29,1.17-1.39-.99-.97-.6-2.8-1.47,.61,.19-.18,1.29-1.11,1.22,.16-.16-.03-1.13,.34-1.24-.84,.36-1.65,.63-2.44,1.06,.59-.23,.1-.96-.46-1.25,.26,.23-2.14,.01-2.78,.27,.36,.04,.71,.07,1.06,.15-1.39,.03-2.02,.56-2.61,1.04-.6,.47-1.14,1.05-2.42,1.3,.25-.29,.47-1.57-.91-1.41-.25,.33-.74,1.21-1.4,2.11-.33,.45-.7,.9-1.11,1.32-.4,.44-.84,.84-1.32,1.13l-.52-.16c-.5,.3-.97,.66-1.44,1,.16-.31,.41-.72,.72-1.18,.32-.44,.71-.93,1.13-1.44,.82-1.03,1.82-1.96,2.58-2.55-1.06,.04-.38-.29-1.86,.17-.62-.14,.67-.69,1.11-.83-1.2,.25-2.35,.61-3.52,.97,.2,.3-.41,.66-.97,1.09-.57,.42-1.14,.82-.97,1.05,.54-.36,1.08-.74,1.64-1.09l1.71-1c.35,.59-1.45,2.51-3.7,3.43-.69,.01-.08-1.27-.21-1.46-.23,.31-1.95,1.45-2.23,1.4l.79-.81c-1.38,.41-1.62,1.81-3.37,2.12-.53,.24-1.95,.15-1.81,.56,1.21,.12,2.59,2.08,2.39,2.88-.17,.07-2.82,.93-3.54,1.04-1.1,.06,.3-1.99-.63-1.95,.08,.17-.21,.66-.35,.85-.58,.23-.13-.61-1.14,.23,.21,.65-2.14,1.57-.15,.82-.88,.93-1.14,.73-2.3,1.68,.63,.03-.06,2.01-.86,2.97-.06-.18-.42-.16-.59-.15-.97,.84-1.74,1.45-2.51,2.05-.74,.62-1.47,1.23-2.31,2.09-.27,.05-1.21,.76-1.08,.2-.15,.34-.2,.73-.69,1.28-1.42,.66,1.06-1.28-.21-.95,.21,.33-.9,1.79-1.4,2.75,.67,.16,1.68-1.76,2.25-2.69,.61,.57,.01,2.5-1.29,4.62-1.09,1.64-.96,.3-1.09,.64-1.25,1.37-1.43,2.23-1.63,2.97-.19,.74-.38,1.38-1.53,2.43-1.16,.65-.89-.6-1.36-.61,.79-1.42,1.75-1.77,2.42-2.64l-1.03,.9c.18-.51,.74-1.44,1.22-1.81-1.02,.5-3.94,4.9-5.9,7.04-.15,.52-.5,1.35-.08,1.13l.46-.79c.83-.43-.48,1.74,.34,.91-.46,1.16-.77,2.57-1.92,3.85l-.69-.06c.17,.07,.92-.73,1.02-1.23-.16,.74-2.14,1.74-1.86,2.84l.99-.79c-.38,1.2-.6,2.81-1.55,3.98,.87-.27,.12-.33,1.28-.87-1.23,.32,2.04-3.23,.48-2.47,1.27-.48,1.33-1.4,2.69-2.2-.19-.08-.6,.21,.17-.79-.02-.08,0-.23,0-.33l.06-.06-.06,.04c0-.06,0-.07-.02,.02-.24,.2-.46,.34-.61,.36-.06-.79,1.12-2.42,1.31-3.11,.51-.56,.01,.39,.42,.18l.29-1.04c.42,.17,1.76-1.17,.95,.4,.3-.43,.63-.84,.95-1.26,.76-.59,1.6-1.56,1.92-2.3,.53-.52,.77-1.78,.64-1.05,.43-.7,.87-1.41,1.33-2.1l.1,.05c1.56-1.85,2.71-4.3,5.2-5.75,.5-.65,.98-1.36,2.05-2.21l.46,.1c.33-.4,.97-.86,1.52-1.3,.57-.42,1.06-.8,1.1-1.1,1.48,.01,4-2.96,5.59-3.85l-.23-.46c1.06-.64,1.94-1.47,3.19-2.39l-.31-.34c.49-.49,1.27-.89,2.18-1.2,.91-.33,1.91-.68,2.87-1.09-.06,.21-.56,.39-.95,.44,1.36-.04,2.46-.76,3.6-1.38,1.12-.68,2.28-1.24,3.46-1.21,.5-.33,.92-.32,1.33-.31-.05,.01-.09,.03-.13,.05,.06,0,.14-.02,.23-.04,.26,.02,.53,.06,.81,.07-.25-.06-.49-.1-.69-.09,.42-.09,1.05-.32,1.66-.53l.35,.44,.14-.03c.63,.1,.46-.29,.08-.61,.31-.12,.59-.25,.8-.4,.3,.36,.7,.22,1.14,.12,.44-.08,.91-.15,1.27,.25,.21-.19,1-.36,1.81-.45,.8-.09,1.6-.25,1.81-.66,.01,.11,.2,.17-.15,.16,.73,.1,1.43,.33,2.12,.17l.22,.65c.56-.2,1.13-.43,1.71-.57,.89,.57,1.21,.86,.2,1.13,2.4-.24,1.86,.12,3.96,0l-.21,.35c.68,.15,1.92,.09,2.2,.56,.61,.62,2.38,1.4,4.29,2.55,.47,.3,.96,.6,1.45,.91,.48,.32,.93,.71,1.38,1.07,.93,.69,1.65,1.57,2.26,2.34,.12-.67,.39-.28,.67,.24,.26,.54,.56,1.18,.96,.94-.05,.36,.18,.85-.41,.54,.79,.62,1.08,1.33,1.43,1.88,.17,.28,.34,.54,.56,.77,.21,.23,.42,.47,.76,.67-.14,.33-.55-.16-.6,.09,.12,.1,.5,.42,.45,.67-.05,.25-.34-.14-.58-.34,.99,1.64,1.76,1.53,2.56,1.35,.01,1.14,.32,1.54,1,2.14-.16,.44-.28,1.09-.67-.12,.07,.35,.24,1.43,.48,2.4,.08,.49,.15,.95,.26,1.3,.08,.35,.2,.58,.36,.59-.14,.23,.02,.99,.07,1.19,0,.81-.08,1.24-.13,1.67-.03,.43-.11,.85-.19,1.64l.17-.42c.34,.37,.33,.72,.19,1.12-.13,.4-.36,.86-.52,1.49l-.06-.06c-.33,.67-.57,1.05-.69,1.33-.12,.27-.14,.43-.19,.58-.04,.15-.09,.3-.23,.55-.14,.26-.4,.62-.91,1.13l.49,.12c.18,.19,.16,.41,0,.66-.17,.23-.47,.48-.8,.74-.34,.26-.76,.49-1.1,.77-.37,.26-.72,.52-.95,.88l.62-.2c-.2,.46-.96,.59-1.67,.6-.74-.02-1.43-.14-1.82-.06-.2-.02,.19-.22,.35-.41-1.02,.17-1.01,.29-.93,.54,.08,.21,.3,.58-.45,.86-.37-.25,.08-.92-.88-.71-.27-.1-.9,.33-1.77,.59-.85,.24-1.94,.33-2.6-.17,.26,.33,.56,.66-.25,.68-.3-.04-.64-.16-.98-.36-.34-.18-.7-.39-1.03-.63-.69-.43-1.33-.85-2.02-.76-.1-.14-.11-.23-.09-.29-.93-.25-2.71-1.45-3.42-1.57,.22-.9-.92-1.78-1.91-2.76-.99-.96-1.8-2.06-1.11-2.4-.5-.85-.92-1.76-1.31-2.68l.17,.02c-.56-1.82-1.07-2.38-1.6-2.96-.01-.47,.21-.18,.3-.16-.36-2.86-.42-3.1-1.5-5.44l.46-.31c-.38-.64,.38-4.25-.23-7.13,.06,.03,.15,.08,.23,.31-.7-3.28,1.37-7.77-.39-9.02-.14-.73-.23-1.45-.34-2.18-.3,2.79-.76-.46-1.12,.68-.04-1.12,.7-2.83,.72-1.47l-.1,.21c.46,.28,.58-.59,.69-1.5,.12-.91,.21-1.88,.53-1.82,.42-5.48,1.79-10.68,3.05-15.59l-.85,.4,.48-1.72c.28-.41,.71-.46,.37,.76,.56-.54,.19-2.15,.06-2.23,.98-2.31,.55,1.16,.78,.43l.24-1-.15,.2c-.05-.88-.34-1.05,.14-2.5,.45-.87,.59-.33,.74-.68,.05,.02,.11-.09,.2-.54,.27-.69,.49-1.4,.79-2.08-.29,.21-.58,.42-.85,.64,.07-1.03,.78-1.96-.21-1.22,.75-.54,1.56-2.46,2.4-4.3,.81-1.85,1.64-3.6,1.97-3.96,.15-.71,.39-1.36,.7-2.03,.3-.67,.7-1.33,1.18-2.03-.32,.3-1.02,.18-.17-1.04,.43,.58,.9,.09,1.45-.61,.58-.67,1.26-1.55,1.98-1.75-.55,.25-.03-.65,.52-1.44,.53-.8,1-1.57,.13-1.19,.84-.9,.44,.25,1.26-.28,1.45-2.57,4.39-4.62,6.93-7.07-.08-.17-.7,.04-.31-.68,.65-.22,1.35-.37,2.01-.55,.48-.51-.14-1.2,1.24-1.54-.23,0-.58,0-.25-.35,3.05-1.79,5.95-3.85,9.12-5.54,3.14-1.71,6.62-2.93,10.2-2.98-1-.11-.4-.29,.31-.47-.48,.03-.09-.43-.23-.64,.51,0,1.01-.03,1.52-.02l1.51,.08c.21-.36,.99-.53,1.75-.63,.76-.07,1.49-.14,1.62-.47l-.93,.2c1.2-.87-1.96-1.49-1.93-2.4-.67,.54-1.67,.39-2.81,.31-1.12,0-2.39,.07-3.41,.96-.57-.03,.36-.43,.02-.56-.49,.57-1.16,.89-2.54,1.14l.12-.14c-3.63,1.41-5.34,1.67-9.34,3.57l.52,.25c-.85,.4-1.1,.37-1.55,.49-.58,1.15,2.33-1.26,1.86-.09-1.63-.32-5.61,3.44-6.88,3.11-1.18,.85,.67,.19-.5,1.04h-.49l-.05,.52c-.77,.55-1.37,.57-1.56,.4,.2-.12,.47-.47,.64-.65-.59,.26-1.25,.84-1.81,1.38-.56,.53-.97,1.08-1.18,1.17,.39-.27,.76-.55,1.16-.8-2.81,2.79-6.43,6.08-8.29,9.48l.35-.09c-1.46,2.52-1.6,1.7-3.27,4.42l.02-.12c-.17,.65-.5,1.44-.98,2.16,.2-.82-1.23,1.03-.92-.02-1.21,2.94-.48,1.54-.75,3.73l-.56,.24c-.03,.77,.11,.91-.49,2.36,.28-1.3-.95,.66-.69-.83-1.12,1.31-1.42,2.54-1.67,3.53-.27,.99-.46,1.74-1.27,2.25,.2,.9,.6,.28,.92-.45,.33-.73,.65-1.55,.57-1.12,.59-.52,.2,1.44-.24,2.36-.39,.96-1.9,1.2-2.72,3.75,.09-.25,.02-.29,.11-.54-.58,.87-.29,1.96-1.02,3.02,.4,.83-.48,1.52,.23,1.92l.51-2.39c-.2,1.39,.33,2.86-.64,4.94-.11-.21-.15-.91-.15-1.39-.39,.59-.16,1.28-.56,1.89-.7-.37,.51-2.92,.39-4.5-.55,.6-.19,2.87-.83,1.92,.8,1.31-.81,2.52-.35,4.48l-.44-.22c.01,.3,.11,.92-.01,1.43l-.4-1.06c.19,1.53-1,2.69-.97,4.14,.5-2.91,.68-.55,1.24-1.71,0,3.66-1.6,1.84-1.97,5.91,.01-.56,.58-2.01,.67-1.13-.22,.75-.53,1.74-.82,2.18-.21,2.69,.53-.35,.69,.82-.67,.84,.06,1.33,.16,2.51l-.48-.04c-.55,3.02,.91,.89,.36,3.59-.2-.4-.41-.8-.59-1.2,.01,.48,.06,.96,.08,1.44l-.53-.33c.33,1.58,.16,2.06-.03,3.58,.35-.34,.87,.23,.84,1.57-.31,.91-.45-.52-.42,1.38-.31-.43-.66-.92-.19-1.74-.15-.09-.29-.43-.44-.53-.37,.99-.15,2.5-.13,3.19,.02-.27,.05-.59,.12-.75l.66,2.77c-.18,.44-.33,.09-.47-.25,.04,.56,.28,.95,.34,1.77-.4-.21-.8-.15-1.01-1.32l.49,2.64c-.17,.18-.44,1.37-.59,1.03-.19,1.49,.9,3.6,.8,5.6,.09,.1,.18,.3,.28,.71,.12,1.86-.11,3.64,.93,5.75l-.36,1.44c.66,1.7,.36-1.92,1.45,.86,.88,1.93-.32,.94-.26,1.72,.72,.91,2.04,2.29,2.55,4.27-.46-.5-.58-1.02-.92-1.54Zm18.82,11.44c-.45,.14-1.4,.52-1.75,.2,.54-.52,.92-.29,1.75-.2Zm10.22-27.64c.29,.2,.46,.66,.47,1.24-.09-.17-.17-.37-.24-.58-.09-.2-.17-.42-.23-.66Zm-70.42,14.24s0-.03,0-.05c.67-.59,.43-.38,0,.05Zm-1.25,1.33c-.05,.19,0,.22,.11,.19-.02-.17,.21-.51,.52-.86-.18,.03-.39,.17-.63,.66Zm48.15-56.34l-.23,.29c.12-.8,.17-.55,.23-.29Z"/><path class="cls-1" d="M106.94,88.63c-.05,.14-.13,.2-.2,.26,.12,.14,.21,.12,.2-.26Z"/><path class="cls-1" d="M72.19,88.45v-.07s-.06-.05-.09-.06l.09,.12Z"/><path class="cls-1" d="M50.11,77.65c.36-.17,.59-.23,.75-.24-.05-.11-.25-.09-.75,.24Z"/><path class="cls-1" d="M28.5,109.4c.17-.35,.33-.7,.51-1.05-.29,.48-.48,.6-.69,.8,.11,.04,.36-.06,.18,.25Z"/><path class="cls-1" d="M20.82,116.69c-.03,.18-.17,.33-.2,.5l.22,.06c.34-.65,.42-1.19-.02-.57Z"/><path class="cls-1" d="M26.57,109.47c-.39-.13-.66,.57-1.03,1.3,.02-.04,.05-.08,.08-.12,.36,.5,.66-.34,.95-1.18Z"/><path class="cls-1" d="M25.45,110.94c-.12,.23-.25,.45-.38,.66,.15,.2,.19-.24,.38-.66Z"/><path class="cls-1" d="M32.09,103.02c-.31,.26,.29,.5,.03,.58,.17,.65,.96-2.47-.03-.58Z"/><polygon class="cls-1" points="25.08 109.34 25.67 109.35 25.57 108.74 25.08 109.34"/><path class="cls-1" d="M28.92,104.04l-.84,1.03c.08,.03,.03,.2-.05,.39,.46-.67,1.03-1.36,.89-1.42Z"/><path class="cls-1" d="M28.03,105.45c-.24,.35-.45,.69-.51,.93,.12-.19,.38-.62,.51-.93Z"/><path class="cls-1" d="M25.91,107.72l.29-.28c.17-.26,.36-.51,.54-.77-.29,.34-.56,.69-.83,1.04Z"/><path class="cls-1" d="M37.53,92.78l.84-1.18c-.03-.22-.37,0-.67,.45-.14,.33-.43,.79-.16,.73Z"/><path class="cls-1" d="M33.71,95.31c.33-.24,.43-.2,.7-.27l-.46-.42-.24,.69Z"/><path class="cls-1" d="M36.27,91.92c-.05-.23,1.02-1.92-.18-.5,.03,.23-.79,1.44,.18,.5Z"/><polygon class="cls-1" points="52.95 77.76 52.65 77.97 53.26 78.79 52.95 77.76"/><path class="cls-1" d="M70.26,68.09c-1.86,.08-.31,.69-1.98,.73-.36,.33,1.35-.04,.97,.26,1-.5,1.64-.37,1.01-.98Z"/><path class="cls-1" d="M69.25,69.07c-.16,.08-.33,.16-.51,.27,.29-.13,.43-.21,.51-.27Z"/><polygon class="cls-1" points="126.87 3.53 127.92 3.65 127.22 3.37 126.87 3.53"/><path class="cls-1" d="M128.8,2.6l.29,.63,.59-.64c-.24,.05-.69,.15-.88,.02Z"/><path class="cls-1" d="M98.65,113.45l.04-.19c-.26-.06-.57,.03-1.21,.19,.38,0,.78,.04,1.17,0Z"/><polygon class="cls-1" points="81.58 109.61 81.81 109.8 81.74 109 81.58 109.61"/><path class="cls-1" d="M73.08,98.12c.17,.55,.5,1.15,.7,1.7-.56-1.15-.05-2.08-.7-1.7Z"/></g><g><path class="cls-1" d="M31.44,138.87c.07,.03,.01-.39,.02-.46-.11,.11,0,.57-.02,.46Z"/><polygon class="cls-1" points="30.39 139.94 30.39 139.77 30.28 140.2 30.39 139.94"/><path class="cls-1" d="M29.35,140.09c.21,.69,.36-.18,.58,.04l.05,.16v-.58c-.21,.12-.45,.55-.64,.38Z"/><path class="cls-1" d="M28.51,138.67c.09,.27-.08,.26,.15,.06l-.04-.06s-.06,.01-.11,0Z"/><path class="cls-1" d="M28.62,138.67c.11-.04-.12-.22,0,0h0Z"/><path class="cls-1" d="M28.12,138.92l.1-.27c-.06-.16-.21-.17-.18-.29-.13,.16-.06,.32,.08,.56Z"/><path class="cls-1" d="M28.09,139.46l.05-.12c-.03-.06-.05-.08-.05,.12Z"/><path class="cls-1" d="M28.26,139.09l-.12,.25c.04,.11,.09,.33,.06-.09,.03,.21,.02,0,.06-.15Z"/><path class="cls-1" d="M28.38,139.18c.11,.14,.24,.21,.14,.48,.26-.15,.13-.63-.14-.48Z"/><path class="cls-1" d="M29.42,140.83l.14,.19,.05-.25c-.03,.12-.23-.16-.19,.06Z"/><path class="cls-1" d="M27.1,138.77c.03,.15,.14,.38,.2,.57l.07-.2c-.08-.09-.21-.16-.27-.37Z"/><path class="cls-1" d="M27.3,139.34l-.1,.29c.15,0,.15-.13,.1-.29Z"/><polygon class="cls-1" points="28.22 140.24 28.38 139.65 28.17 140.26 28.22 140.24"/><polygon class="cls-1" points="26.46 138.91 26.47 138.54 26.43 139.1 26.46 138.91"/><path class="cls-1" d="M26.06,139.08c0-.3-.23-.45-.2-.64-.1,.08-.13,.35-.16,.6,.06-.15,.17-.15,.36,.04Z"/><path class="cls-1" d="M25.65,139.39c.03-.08,.04-.21,.05-.36-.03,.08-.05,.19-.05,.36Z"/><path class="cls-1" d="M26.91,139.63c-.04-.09-.12-.31-.24-.39l.17,.4h.07Z"/><path class="cls-1" d="M26.85,139.65h0Z"/><path class="cls-1" d="M26.92,139.62h-.02s.02,.05,.02,0Z"/><path class="cls-1" d="M27.72,139.96c-.04,.26-.17,.55,.09,.86,0-.3-.15-.48-.09-.86Z"/><path class="cls-1" d="M27.13,140.12l.19,.05c-.03-.11-.1-.26-.08-.39l-.11,.33Z"/><polygon class="cls-1" points="27.08 140.27 27.13 140.12 27.06 140.1 27.08 140.27"/><path class="cls-1" d="M26.05,139.69c-.02,.2-.1,.24-.18,.3,.12,.05,.23,.07,.33,.04-.02-.13-.05-.38-.15-.33Z"/><path class="cls-1" d="M26.45,139.7v.03s.02,.04,0-.03Z"/><path class="cls-1" d="M24.98,140.25l.04,.07-.02-.07h-.02Z"/><path class="cls-1" d="M26.24,140.09c.09,.06,.11-.06,.12-.19-.04,.06-.09,.1-.15,.12,.01,.06,.02,.1,.04,.07Z"/><path class="cls-1" d="M25.45,139.66c.06,.07,.13,.13,.2,.19-.08-.12-.21-.3-.2-.19Z"/><path class="cls-1" d="M26.38,139.62v-.02c-.04-.08-.03-.04,0,.02Z"/><path class="cls-1" d="M26.38,139.62c-.02,.07-.02,.18-.03,.28,.04-.05,.06-.1,.08-.17-.02-.03-.04-.07-.06-.11Z"/><path class="cls-1" d="M25.6,142.94c-.12-.38-.06-.8,.23-.43,.06-.33-.43-1.54-.81-2.19,.05,.17,.1,.32,.01,.6,.12,.18,.52,.36,.49,.75-.15,.26-.21-.07-.38-.24,.24,.44-.03,.77,.25,1.44l.09-.3c.04,.11,.03,.3,.12,.38Z"/><path class="cls-1" d="M25.35,140.26l.05-.07c-.1-.04-.2-.18-.4-.44-.06,.22-.03,.37,0,.49l.36-.05v.06Z"/><path class="cls-1" d="M25.71,140.1c.07,.43-.04,.65,.2,1.07,.19-.09,.03-.39,.1-.6-.29,.2,.02-.26-.28-.42,.04-.09,.09-.13,.14-.16-.07-.03-.15-.08-.23-.14l.02,.02h0c.03,.05,.04,.08,.02,.06,0,0,0,.01,0,.01l.03,.16c-.12-.06-.05-.1-.03-.16v-.06h-.02l-.26,.32c.09,.04,.17,0,.31-.09Z"/><path class="cls-1" d="M27.86,141.76s-.02-.06-.03-.1c0,.06,0,.09,.03,.1Z"/><path class="cls-1" d="M27.67,141.54c0-.06-.01-.24,.07-.21,.09,.11,.05,.2,.08,.34,.02-.12,.08-.34-.1-.51v.06c-.17-.11-.46-.6-.45-.66,.13,.37,.23,.63,.4,.98Z"/><path class="cls-1" d="M26.73,140.9l-.2,.28,.23,.32-.07-.21c.17,.04,.07-.22,.04-.39Z"/><polygon class="cls-1" points="24.88 140.06 24.78 139.61 24.82 140.28 24.88 140.06"/><polygon class="cls-1" points="24.55 140.23 24.44 139.86 24.42 140.11 24.55 140.23"/><path class="cls-1" d="M10.25,156.38l-.11,.09s.08-.05,.11-.09Z"/><path class="cls-1" d="M10.95,156.41l.02-.2c-.03,.12-.05,.2-.02,.2Z"/><path class="cls-1" d="M16.56,144.49c-.32-.23-.77-.6-.5-.26l.29,.32c.02-.11,.1-.11,.2-.07Z"/><path class="cls-1" d="M13.9,150.42l.11,.08-.22-.39,.11,.31Z"/><path class="cls-1" d="M14.96,151.98l-.31-.07c.09,.05,.19,.07,.31,.07Z"/><path class="cls-1" d="M7.48,154.47c-.12,.13-.23,.25-.34,.35,.12,.21,.21-.14,.34-.35Z"/><path class="cls-1" d="M21.12,141.84c-.17-.11-.28-.13-.35-.12,.23,.17,.48,.46,.35,.12Z"/><path class="cls-1" d="M11.15,150.12c-.03,.14-.06,.29-.08,.47,.04-.13,.06-.28,.08-.47Z"/><path class="cls-1" d="M20.5,141.86s.06,.04,.1,.07c.04-.1,.08-.19,.18-.2-.17-.12-.32-.18-.27,.14Z"/><path class="cls-1" d="M1.41,143.68s.01-.03,.02-.05c-.05,.04-.04,.05-.02,.05Z"/><path class="cls-1" d="M2.53,138.39s.08,.04,.12,.07c0-.04-.03-.07-.12-.07Z"/><path class="cls-1" d="M23.08,140.58c.06-.06,0-.05,0,0h0Z"/><path class="cls-1" d="M24.06,142.04c0,.05,.01,.11,.05,.21-.03-.1-.05-.16-.05-.21Z"/><path class="cls-1" d="M21.11,144.6h0c.06,.07,.05,.05,0,0Z"/><path class="cls-1" d="M23.26,140.71s-.09-.07-.14-.08c.03,.02,.07,.05,.14,.08Z"/><path class="cls-1" d="M23.17,140.53h.08c-.02-.06-.04-.1-.08,0Z"/><path class="cls-1" d="M22.99,140.64s.09-.02,.13,0c-.03-.02-.04-.04-.04-.06-.02,.02-.05,.04-.09,.06Z"/><path class="cls-1" d="M5.64,147.56l.03-.03c-.19,.04-.15,.05-.03,.03Z"/><path class="cls-1" d="M17.87,149.19v-.02h-.03l.03,.02Z"/><path class="cls-1" d="M17.9,149.58c-.28-.48-.19-.46-.05-.42l-.87-.9,.93,1.33Z"/><path class="cls-1" d="M9.05,155.76l.03,.57c-.38,.57-.48,.23-.49,.96,.24-.77,.4-.69,.57-.61,.16,.08,.32,.1,.47-.61l.04,.36s-.05,.05-.08,.02c.09,.78,.33-.93,.59-.58,.1,.15,.17,.36,.06,.5,.11-.09,.23-.18,.34-.29,.08,.03,.04,.26-.04,.23,.16-.03,.31-.09,.43-.16v.04l.22-.8c.07,.16-.04,.18-.03,.35,.06-.15,.11-.3,.16-.45,.05,.35-.07,.8-.19,.8,.14,1.38,.11-.4,.47,.24l-.17,.3c.12,.81,.27,.42,.52,.89-.09-.29-.48-1.19-.29-1.7,.06,.08,.13,.1,.21-.3,.04,.57,.13,.37,.26,.25l.06,.78c.13-.3,.07-.69,.11-1.1,.16-.02,.28,.58,.39,1.08,.29-.01-.32-.89-.05-1.23,.06,.04,.12,.06,.17,.02,.05-.06,.1-.14,.14-.26,.08-.22,.15-.55,.21-.93,.22,.08,.1,.5,.21,.65l-.03-.77s.08,.17,.1,.27c.05-.36-.21-.76-.11-1.15-.11-.42,.06-.22,.27-.08,.2,.15,.45,.22,.37-.31,.14,.12,.16,.43,.3,.67,.05-.91,.09-.72-.07-1.66,.14,.05,.29,.1,.44,.14-.43-.25-.57-.98-.75-1.49l-.41-.34c-.01-.16-.03-.31-.05-.46,.09,.06,.22,.24,.36,.49l-.07-.16c.22,.11,.44,.42,.61,.77-.11-.07-.22-.15-.33-.23,.2,.37,.41,.8,.65,1.1-.03-.08-.04-.17-.03-.24,.05,.11,.1,.2,.15,.24,.05,.04-.01-.11-.07-.29l.52,.49-.17-.24c.21-.03,.44-.06,.67-.11-.3-.75-.93-1.59-.83-2.12,.3,.44,.59,.62,1.03,1.06-.54-.38-.02,.42-.26,.48,.13-.03,.32,.19,.38,.28l-.17-.68c.35,.36,.33,.21,.54,.29-.76-.65-.27-.67-.38-1,.24,.23,.45,.51,.27,.58,.67,.4-.64-1.04-.04-.72-.03,.04-.08,.02,.02,.15-.13-.29,.23-.29,.38-.04l-.03,.04c.3-.12,.68-.61,.15-1.28,.07,.08,.65,.8,.75,.94-.5-.84-.98-1.68-1.44-2.53,.43,.59,1.69,1.81,1.77,2.28,.12,.03,.27,.07,.22-.22-.1-.05-.77-.73-.76-.83,.66,.51,.38,.25,.99,.65-.16-.08-.81-1.02-.7-1.06,.09,.15,.71,.88,.76,1l-.47-1.06c.07,.21,.58,.76,.82,.97-.16-.15,.2-.14,.2-.27l-.26-.14c.36-.05-.69-1.45-.38-1.61,.1,.21,.77,1.21,.98,1.23-.28-.51-1.34-2.45-1.33-3.01l.24,.24v-.45c.34,.8,1.05,2.54,1.31,3.23,.25,.14,.25,.3,.38,.17,.23,.22,.19,.44,.16,.48l.44-.07c-.4-.55-.12-.73-.44-1.19,0,.27,0,.55,.02,.83-.4-.54-.87-1.73-.54-1.8,.21,.18,.61,1.03,.74,1.21-.1-.21,0-.52,.11-.4l.09,.37c.27,.13-.26-.89,.26-.46,.08,0,.63,.62,.43,.28-.5-.59-1.78-2.59-2.01-3.12,.05,.03,.72,.4,.99,.69,.41,.46,.58,1.32,.94,1.71-.09-.16-.15-.38-.17-.46,.14,.1,.27,.5,.36,.35-.32-.6,.31-.11-.23-.53,.04-.25,.22,.04,.36-.08-.27-.35-.59-1.39-.54-1.64,.08,.16,.22,.34,.28,.42,.32-.11,.62,.07,.9-.06,.1,.13,.32,.25,.4,.54-.02-.13-.08-.35,0-.41,.43,.45-.15,.17,.3,.75-.17-.36-.03-.59-.02-.88-.3-.53-.33,.03-.34,.31-.38-.75-.56-1.65-.42-2.15,.16-.31,.34,.44,.33,.31,.51-.09-.21-1.52,.43-1.14,.37,.43,.43,.98,.62,1.32-.11,.27-.44-.18-.57-.1l.27,.16c0,.19-.06,.37-.2,.26,.32,.39,.8-.24,1.32,.02,0-.19,.03-.41-.1-.59l-.08,.12c-.27-.36-.01-.65-.23-.77,.04-.35,.04-.87,.35-.72l.26,.56c-.07-.17-.27-.29-.27-.09,0-.29,.63,.65,.45-.13l-.3-.34c.05-.35,.03-1.03,.3-.92-.29-.54-.02,.08-.41-.53,.43,.78-.54,.16-.02,.95-.44-.72-.38-.23-.83-.82,.08,.19,.21,.33,0,.31,.01,.06,.02,.14,.03,.18h0s0,.05,0,.02c.07,.06,.14,.15,.2,.25,.09,.46-.18,.56-.18,.82-.13-.05-.05-.23-.18-.41v.39c-.18-.41-.55-.58-.41-.92l-.22,.07c-.22-.18-.44-.19-.47,.02-.14-.04-.05,.56-.11,.2-.07,.13-.14,.27-.21,.4l-.05-.1c-.35,.11-.32,.99-1.06,.45-.06,.16-.1,.33-.34,.31l-.22-.32c-.07,.2-.6-.11-.46,.28-.66-.83-.78,.18-1.11,.16l.25,.44c-.17,.08-.25,.3-.34,.59l.25,.37c.03,.42-.6,0-.84,.21-.08-.15,.01-.16,.12-.1-.89-.64-.23,1.05-.93,.64,.03,.18-.05,.17-.17,.12,0,0,0-.02,0-.03-.01,0-.02,0-.03,.02-.08-.04-.16-.09-.24-.12,.09,.07,.17,.12,.22,.14-.05,.05-.09,.15-.11,.3l-.32-.36s0,.01-.01,.02c-.18-.09,.07,.23,.33,.49,0,.09,.03,.19,.07,.31-.53-.58-.04,.36-.63-.23,.2,.36-.19,.55,.31,1.24-.07-.08-.13-.11-.09-.15-.14,0-.29-.02-.21,.23l-.42-.44,.35,.78c-.35-.2-.53-.33-.73-.77,.21,.77-.04,.38,.22,1.12l-.25-.31c-.07,.08,.17,.59-.1,.38-.67-.4-.91,.67-1.8,.6,.91,.74-.56-.17,.06,.48-.22-.17-.39-.22-.49-.45,0,.4-.65,.04-.21,.68-.21-.18-.28-.3-.4-.4,.04,.05,.15,.19,.03,.08-.12-.11-.15-.18-.23-.27,0,.08,.54,.74,1.06,1.36-.32-.21-.29-.16-.03,.34-.19-.18-.38-.38-.36-.54-.07,.03-.43-.09-.11,.52-.1-.14-.08,.02-.06,.11-.11,.08-.14,.03-.21,.21l.07,.08c.27,.87-.02,.3-.06,.5l-.03-.09c-.36-.42,0,.43-.36-.12l.14,.59c.13,.65,.04,.53-.07,.3-.11-.22-.22-.57-.23-.23l.09,.32c-.01,.59-.37-1.74-.39-1.92-.02-.12,0-.22,0-.33-.13-.8,.07,.92,.01,1.24-.04-.5-.06-1.31-.1-1.36-.02-.2-.01,.25-.04,.65-.02,.4-.07,.78-.09,.27,0,.42,.02,.83-.03,1.22-.09,.27-.08-1.54-.29-.1,0-.13,0-.25,.02-.36-.11,.38-.29,.51-.45,1.22,.22-1.44,.11-1.17-.01-.94-.12,.24-.27,.46,.04-.67l-.12-.09,.07-.21c0-.26-.19,.19-.39,.6,.03-.17,.12-.33,.16-.43,.06-.6,.05-.47-.47,.17l.27-.57c-.13,.18,.07-.45,.08-.65,0-.09-.04-.12-.18-.02,.04-.05,.11-.13,.16-.18-.24,.15-.07-.26,.04-.47,.1-.22,.12-.27-.64,.23-.15,.04-.3,.07-.45,.09,.01,.32-.68,.39-.87,.66-.17-.08,.3-.58,.46-.5l-.07,.07c.41-.23,.45-.33,.45-.44-.02-.13-.08-.25,.21-.4-.4-.64-.33-1.55-.67-2.19l-.58,.45-.09-.23c.11-.15,.44-.38,.51-.21,.3-.3-.45-.07-.59,0,.07-.45,.79-.34,.75-.44l-.12-.1-.06,.07c-.32,.06-.59,.22-.68,.02,.05-.19,.34-.3,.34-.36,.04-.03,.05-.06-.03-.08l-.12-.3-.41,.42c-.31,.04-.13-.26-.6,.22,.73-.74-.35-1.16-.17-1.45-.45,.08-.56-.07-.66-.3-.06,.12-.57,.53-.62,.32,1.13-.73,.25-.64,.93-1.35-.42,.5-.48-.37-1.06,.36-.02-.2,.39-.31,.56-.61-.65,0-.29-.92-.75-1.21-.14,.11-.3,.34-.57,.42l.51-.77c-.13-.02-.84,.58-.49,.05-.1,.11-.24,.29-.33,.27,.01-1.33-1.83-1.03-1.35-2.87-.15,.34-.24,.29-.32,.23-.01,.11-.31,.3-.48,.48l.18-.76c-.52,.41-.35-.29-.83,.13h.17c-.65,.42-1,1.36-1.7,2.01,.74-.46-.56,1.22,.52,.59-.1,.18-.26,.17-.4,.35,.35-.23,.48-.22,.46,.03l-.09,.06c.4,.28,.24,.71,.39,1.28l.33-.34c.03,.13-.07,.24-.12,.36,.63-.38-.18-.27,.49-.7-.62,.75,.53,.63-.24,1.42,.11,.14,.39-.39,.49-.25l-.2,.23,.32-.21c.03,.13-.22,.41-.41,.57,0-.04-.11-.02-.14-.02-.17,.33,.36,.25,.3,.36l.04-.25c.52,.2,.58,.89,1.33,.9l.16-.16c.55,.04-.02,.37,.36,.58l-.05,.02c.23-.07,.38-.05,.42,.05-.27,.07-.3,.45-.61,.51,.59,.05,.39-.05,1.22-.32l-.27,.26c.32-.12,.47-.22,.67-.1-.35,.05-.39,.43-.84,.52-.44,.79,1.03,.04,.14,.86,.96-.41,.28-.61,.52-.65,.23-.26,.73-.3,.71-.13,.06,.13-.97,.91-.78,1.18-.01-.03-.08,.01-.09-.02-.15,.24,.43,.01,.15,.37,.57-.26,.07,.18,.76-.21l-.32-.16c.27,.03,1.14-.32,.91,.17-.15,.06-.37,.1-.5,.11-.15,.19,.22,.06,.06,.26-.69,.39-.34-.23-.95-.06-.24,.25,.67,0-.11,.37,1-.46,.05,.34,.88,.1l-.41,.23c.08,0,.31-.06,.34,0l-.59,.22c.55-.12-.22,.53,.11,.53-.19-.3,.45-.36,.68-.67,.77,.07-.94,.85-.5,1.16-.09-.02,.12-.36,.37-.38-.04,.13-.13,.33-.32,.5,.24,.24,.4-.28,.72-.3-.45,.38,.28,.03,.51,.07l-.42,.23c-.08,.5,.91-.44,.79,.13-.22,.06-.47,.07-.68,.14,.07,.02,.19,.11,.28,.15l-.5,.22c.51,.09,.45,.21,.47,.6,.25-.27,.73-.5,.85-.29-.15,.35-.41,.22-.19,.5-.27,.14-.61,.3-.34-.15-.13,.09-.28,.12-.41,.2-.17,.41,.18,.55,.25,.68-.01-.07-.02-.15,.01-.23,.26,.02,.51,.03,.75,0-.09,.22-.23,.28-.37,.33,.09,.07,.29-.04,.38,.08-.3,.29-.57,.64-.83,.55,.2,.07,.37,.14,.56,.19-.1,.18-.2,.72-.33,.78,0,.19,.1,.26,.24,.3,.26,.05,.59-.03,.61,.39,.06-.07,.12-.12,.2-.12,.13,.36,.09,1.17,.59,.87l-.17,1.02c.26,.03,.22-1.24,.61-1.24,.28-.07-.17,.78-.17,1.07,.26-.33,.64-.98,.65-.16-.1,.09-.12-.07-.19-.07Zm2.62,.06c-.04,.15-.13,.57-.17,.26,.05-.66,.08-.39,.17-.26Zm3.15-5.03c.08,.15-.03,.16-.21,.09,.01-.08,.07-.12,.21-.09Zm7.63-9.51v.02c-.19-.12-.12-.07,0-.02Zm.32,.09c0-.07-.03-.13-.07-.19,.03,.12-.02,.15-.1,.15,.07,.11,.13,.18,.16,.05Zm-14.8,3.81l-.08,.11c-.18-.02-.05-.06,.08-.11Z"/><path class="cls-1" d="M14.84,151.79c-.06-.05-.12-.12-.18-.19,.03,.09,.09,.17,.18,.19Z"/><path class="cls-1" d="M7.54,154.4s0,0,0-.02l-.06,.09,.06-.07Z"/><path class="cls-1" d="M21.25,146.71c-.08-.04-.14-.1-.21-.17,.06,.1,.13,.18,.21,.17Z"/><path class="cls-1" d="M23.77,140.08l-.12,.18c.07-.05,.13,.04,.2,.1-.04-.1-.13-.25-.08-.27Z"/><path class="cls-1" d="M26.09,142.44c0-.06,.04-.02,.05-.08l-.07-.21c-.09,.04-.1,.23,.02,.3Z"/><path class="cls-1" d="M24.47,141.53c.15,.38,.2,.21,.28,.1,0,0-.01,0-.02,0-.16-.55-.21-.33-.26-.11Z"/><path class="cls-1" d="M24.77,141.62s.06-.05,.1-.05c-.06-.22-.06-.03-.1,.05Z"/><path class="cls-1" d="M22.97,140.99c.09,.07-.16-.49-.07-.35-.14-.5-.11,.73,.07,.35Z"/><polygon class="cls-1" points="25.01 142.76 24.8 142.3 24.88 142.7 25.01 142.76"/><path class="cls-1" d="M24.07,142.72l.22,.07c-.03-.08-.03-.13-.02-.18-.11,.02-.26-.03-.2,.11Z"/><path class="cls-1" d="M24.26,142.61c.06-.01,.1-.04,.1-.13-.03,.02-.08,.05-.1,.13Z"/><polygon class="cls-1" points="24.84 142.98 24.76 142.9 24.63 142.91 24.84 142.98"/><path class="cls-1" d="M22.29,143.4l-.11,.21c.06,.16,.15,.23,.18,.14-.01-.13,.02-.22-.07-.36Z"/><path class="cls-1" d="M23.38,144.39c-.09-.08-.14-.18-.23-.31l.25,.57-.02-.25Z"/><path class="cls-1" d="M22.96,144.76c.06,.16-.02,.56,.17,.43-.06-.16,.04-.37-.17-.43Z"/><polygon class="cls-1" points="20.12 145.4 20.16 145.37 19.62 144.5 20.12 145.4"/><path class="cls-1" d="M19.51,148.76c.31,.08-.34-.53,0-.4-.1-.22-.27-.11-.35-.31,.05,.28-.09,.2,.36,.7Z"/><path class="cls-1" d="M19.16,148.05s-.02-.1-.04-.16c0,.07,.02,.12,.04,.16Z"/><polygon class="cls-1" points="2.53 137.61 2.57 137.35 2.4 137.66 2.53 137.61"/><path class="cls-1" d="M1.79,137.94l.43-.49-.48,.35s.13,.01,.05,.13Z"/><path class="cls-1" d="M12.15,157.14v-.19c-.04-.19-.08-.19-.15-.19l.15,.38Z"/><polygon class="cls-1" points="9.94 156.96 9.97 156.98 9.99 156.36 9.94 156.96"/><path class="cls-1" d="M8.15,156.88c.06,.07,.19-.03,.24,.04-.19,.03,.04-.91-.24-.04Z"/></g></g></svg>