<?xml version="1.0" encoding="UTF-8"?><svg id="Layer_2" xmlns="http://www.w3.org/2000/svg" viewBox="0 0 124.7 146.22"><defs><style>.cls-1{fill:#bb2524;}</style></defs><g id="Layer_1-2"><g><path class="cls-1" d="M110.4,145.79c-.02,.38,.39,.23,.47,.28-.12-.63-.58-.26-.47-.28Z"/><polygon class="cls-1" points="109.06 139.64 109.23 139.73 108.74 138.85 109.06 139.64"/><path class="cls-1" d="M108.48,133.85c-.64,.63,.35,2.08,.2,3.14l-.14,.19,.62,.41c-.21-1.25-.76-2.83-.67-3.73Z"/><path class="cls-1" d="M109.62,130.57c-.25,.23-.32-.64,0,.73,.02-.07,.04-.1,.05-.14-.02-.12-.04-.3-.06-.59Z"/><path class="cls-1" d="M109.68,131.17c.1,.61,.18-.43,0,0h0Z"/><path class="cls-1" d="M109.13,128.37l.36,.77c.14-.19,.07-.92,.23-.67-.26-.81-.4-.61-.59-.1Z"/><path class="cls-1" d="M108.49,127.68l.17,.4c.06-.08,.06-.2-.17-.4Z"/><path class="cls-1" d="M109.01,128.93l-.35-.85c-.1,.13-.32,.18,.14,.39-.22-.04,0,.1,.21,.46Z"/><path class="cls-1" d="M108.98,129.45c-.09,.47-.1,1.07-.46,.3,.32,1.52,.78,1.23,.46-.3Z"/><path class="cls-1" d="M107.71,133.65l-.14,.62,.3,.49c-.15-.24,.06-1.17-.16-1.11Z"/><path class="cls-1" d="M108.66,123.31c-.16-.02-.35,.34-.53,.43l.28,.56c.05-.32,.04-.91,.25-.99Z"/><path class="cls-1" d="M108.13,123.74l-.42-.83c.11,.79,.26,.91,.42,.83Z"/><polygon class="cls-1" points="107.69 127.66 108.45 129.03 107.64 127.39 107.69 127.66"/><polygon class="cls-1" points="108.03 119.93 108.47 120.36 107.77 119.57 108.03 119.93"/><path class="cls-1" d="M107.5,117.71c.36,.31,.37-.61,.63-.26-.19-.6-.55-1.06-.87-1.47,.23,.47,.32,1,.24,1.73Z"/><path class="cls-1" d="M106.77,115.27c.13,.23,.3,.46,.5,.71-.13-.25-.27-.48-.5-.71Z"/><path class="cls-1" d="M107.5,121.39c.08-.09,.29-.26,.29-.78l-.35,.43,.06,.35Z"/><path class="cls-1" d="M107.43,121.06h.01l-.12-.77,.11,.77Z"/><path class="cls-1" d="M107.52,121.48l-.02-.09s-.04,.06,.02,.09Z"/><path class="cls-1" d="M107.69,125.29c-.32-.48-.76-1.51-.94-.4,.35,.32,.45-.31,.94,.4Z"/><path class="cls-1" d="M107.08,122.01l.08,.95c.11-.04,.24-.24,.4,0l-.48-.95Z"/><polygon class="cls-1" points="106.85 121.58 107.08 122.01 107.04 121.66 106.85 121.58"/><path class="cls-1" d="M106.74,116.95c-.27-.36-.39-.8-.53-1.28,.04,.55,.12,1.11,.23,1.63,.15,.04,.43,.22,.29-.34Z"/><path class="cls-1" d="M107.05,118.95l-.04-.08c-.02,.06-.03,.11,.04,.08Z"/><polygon class="cls-1" points="105.01 110.81 104.96 110.91 105.03 110.91 105.01 110.81"/><path class="cls-1" d="M106.39,117.4c.01,.42,.16,.63,.34,.83-.1-.29-.2-.6-.28-.94-.07-.02-.11-.02-.06,.11Z"/><path class="cls-1" d="M106.25,113.95c-.04,.23-.05,.48-.06,.74,.08-.23,.19-.7,.06-.74Z"/><path class="cls-1" d="M107.09,118.71l.03,.06c.06-.15,.02-.12-.03-.06Z"/><path class="cls-1" d="M107.09,118.71c-.1-.19-.24-.33-.37-.48,.08,.24,.18,.45,.28,.64,.02-.06,.05-.12,.09-.16Z"/><path class="cls-1" d="M101.97,110.07c.4-.04,1.03,.89,.85,1.89,.51,.8,1.63-.09,2.13-1.05-.17,.02-.33,.06-.8-.79-.12,.38,.05,2.14-.5,1.47-.52-1.14-.13-1.01-.08-1.65-.34,.62-1.11-1.32-1.74-.86l.54,.97c-.1,.05-.38-.28-.4,.04Z"/><path class="cls-1" d="M105.36,112.65l.14,.36c-.04-.44,.04-.79,.19-1.43-.34-.58-.53-.67-.66-.68l.42,1.86-.09-.11Z"/><path class="cls-1" d="M105.92,114.7c-.49-.19-.88-1.05-1.2-.39,.29,1.09,.53,.69,.87,1.3-.53-1.75,.36,.46,.29-.88,.15,.33,.25,.64,.34,.94-.02-.33-.04-.66-.03-.97l-.02,.05h0c-.03,.1-.06,.13-.05,.04,0,0-.01-.03-.02-.04-.06,0-.12-.02-.18-.04-.04-.54,.09-.11,.18,.04,.02,0,.04,.01,.07,0h0l-.66-1.74c.04,.39,.16,.86,.41,1.69Z"/><path class="cls-1" d="M105.67,124.1c.03-.06,.06-.07,.09-.07-.07-.11-.12-.14-.09,.07Z"/><path class="cls-1" d="M105.79,123.32c.08,.12,.27,.2,.31,.63-.06,.39-.2,.03-.34,.08,.16,.23,.47,.84,.53,0l-.08-.12c.01-.74,.37-1.77,.45-1.66-.34,.28-.58,.52-.87,1.07Z"/><path class="cls-1" d="M105.79,118.99l-.53-1.44-.2,.83,.21-.09c.09,.86,.32,.62,.51,.69Z"/><polygon class="cls-1" points="105.17 110.59 105.67 110.67 104.82 109.97 105.17 110.59"/><polygon class="cls-1" points="104.59 108.67 105 108.64 104.62 108.19 104.59 108.67"/><path class="cls-1" d="M24.92,40.85v-.52c-.01,.24-.01,.4,0,.52Z"/><path class="cls-1" d="M24.34,44.46l.19,.1c-.1-.17-.18-.25-.19-.1Z"/><path class="cls-1" d="M72.41,73.1c-.52-.55-1.08-1.31-1.13-.86l.07,.47c.47,.06,.79,.21,1.05,.39Z"/><path class="cls-1" d="M40.35,65.62l.1,.21,.58-.14-.68-.06Z"/><path class="cls-1" d="M39.03,66.94c-.21-.23-.41-.48-.61-.71,.12,.19,.31,.43,.61,.71Z"/><path class="cls-1" d="M38.54,26.97l.6-.5c-1.04,.1-.55,.28-.6,.5Z"/><path class="cls-1" d="M96.22,89.71c-.18-.59-.41-1-.63-1.36,.21,.73,.24,1.4,.63,1.36Z"/><path class="cls-1" d="M29.15,43.04c-.05-.25-.1-.36-.2-.37,0,.25,.1,.41,.2,.37Z"/><path class="cls-1" d="M94.56,86.98c.03,.11,.08,.2,.12,.31,.34,.29,.63,.62,.92,1.06-.15-.54-.42-1.11-1.03-1.37Z"/><path class="cls-1" d="M1.26,24.39c0-.05,0-.11,0-.16-.06,0-.04,.07,0,.16Z"/><path class="cls-1" d="M4.51,5.71c0,.18-.05,.45-.09,.72,.05-.12,.09-.34,.09-.72Z"/><path class="cls-1" d="M102.26,100.91c.18,.39,.07,.05,0,0h0Z"/><path class="cls-1" d="M101.35,103.44c-.08-.07-.16-.11-.26-.09,.11,0,.19,.03,.26,.09Z"/><path class="cls-1" d="M89.71,85.56l-.02-.03c.03,.15,.02,.12,.02,.03Z"/><path class="cls-1" d="M102.3,101.59c0-.17-.03-.36-.07-.56,0,.1,.02,.27,.07,.56Z"/><path class="cls-1" d="M102.46,101.43l.09,.37c.09,.03,.11-.03-.09-.37Z"/><path class="cls-1" d="M102.01,100.36c.1,.23,.16,.45,.21,.67,0-.09,0-.13,.03-.12l-.24-.55Z"/><path class="cls-1" d="M28.85,44.13s-.06-.02-.09-.04c-.44,.17-.25,.14,.09,.04Z"/><path class="cls-1" d="M60.75,74.7s.03,0,.05,0l-.06-.03v.04Z"/><path class="cls-1" d="M59.22,74.66c.75-.37,1.08-.23,1.52,0l-.19-1.33-1.34,1.33Z"/><path class="cls-1" d="M28.73,33.05c-.35,.23-.72,.46-1.07,.72,.4-1.56,1.33-2.3,.14-1.73,.46,.52-.31,1.45-.92,2.49-.64,1.02-1.12,2.13-.56,2.48l-.58,.6c.1-.2,.04-.27,.15-.47-1.22,1.18,.41,1.42-.36,3.16-.28,.61-.56,1.04-.62,.55,0,.53-.04,1.03,.01,1.55-.09,.43-.31,.29-.22-.15-.07,.78-.17,1.54-.14,2.33l-.04-.02c.2,.35,.48,1.09,.67,1.44-.16,.58-.16-.28-.32-.13l.41,1.24c-.32,.56-.73-.47-.73-1.38-.64,.63-.54,.92-.36,1.36,.19,.45,.5,.99,.35,2.34-.16-.38-.25-.78-.38-1.17-.65,.92-.18,1.83-.24,3.33,.05-.2,.16-.97,.36-1.51,.19-.54,.45-.85,.78-.22-.01,.4,.05,.92,.55,1.53-.45,.15-.15,.83,.23,1.64l-.62,.18c.55,.86,.81,.66,1.32,1.05,.42,.99,.08,1.43-.15,1.85,.79,1.58,.09-1.43,1.23,.29,.53,1.35,1.34,2.06,2.67,3.12,.46,.89-.41,.12-.33,.5l.95,.33c.13,.17-.03,.22-.12,.25,.63,.42,.51-.37,1.41,.33,.36-.14,.56,.46,.91,1.12,.34,.68,.84,1.42,1.63,1.56,.15,.36-.38,.19-.46,.45,1.84,.8,1.54,.75,3.22,1.07,.28,.37,.58,.72,.87,1.08-.56-.94,.79-.71,1.93-.6-.17-.37-.31-.68-.42-.86,.53,.19,1.06,.35,1.59,.53,.12,.19-.13,.3-.49,.4,.12,.01,.24,.02,.34,.02,.41,.48-.03,.67-.59,.77-.12-.21-.23-.43-.33-.65-.55,.13-1.12,.3-1.24,.67,.14,0,.36,.05,.58,.13-.15,.04-.26,.08-.25,.16,.02,.09,.25,.06,.57,.06v.82l.22-.2c.6,.48,1.2,.98,1.83,1.44,1.79,.07,3.46-.35,5.89,.22-.76,.28-.42,.76-.66,1.33-.42-.85-1.94-.42-3.12-1.08,.61,.34,.36,.55,.15,.58,.81,.12,1.62,.24,2.42,.32-.23,.45,.34,.53,.85,.94-.1-1.1,1.87-.05,2.87-.07-.04,.34-.36,.6-1.45,.16,1,1.12,1.93-.61,2.93,.35-.27-.07-.4-.17-.56-.03,.71-.09,2.19,.57,1.75,.75l-.27-.07c1.77,.64,5.49,1.44,5.95,.68,0,.11-.48,.94-.63,1.08l3.87-2.01c-.45,.64,.22,2.59-1.36,2.64,.4,.2,.9,.45,1.86,.41-.27-.17-.48-1.2-.06-1.17,.9,1.05,.66,.61,1.83,1.61-.39-.26,.36-1.25,1.04-1.05-.15,.14-.22,1.11-.5,1.16l1.98-.66c-.48,.09-.31,.9-.02,1.31-.12-.26,1.45,.41,1.92,.43l-.64-.45c1.84,.69,2.31-1,4.18-.35-.3,.15-.98,1.18-.09,1.62,.59-.41,2.79-2.01,4.64-1.76l.2,.43,1.41,.18c-1.15,.45-3.98,1.3-5.37,1.59,.6,.49,.06,.43,1.09,.76,.25,.42-.71,.25-1.01,.16,.77,.33,1.51,.69,2.26,1.04,.14-.67,2.01,.09,2.14-.44-.93-.15-1.85-.28-2.78-.37,.12-.67,2.18-1.24,3.8-.37,.31,.43-.81,.95-.86,1.17,.31-.13,1.71,.3,1.78,.53h-.83c.76,.64,1.84-.09,2.58,1.04,.33,.24,.6,1.35,.86,1.04-.16-.98,.89-3.11,1.6-3.37,.13,.11,1.57,1.84,1.73,2.44,.21,.89-1.66,.58-1.48,1.35,.12-.14,.55-.11,.73-.08,.26,.38-.47,.36,.33,.83,.53-.45,1.46,1.2,.69-.19,.85,.4,.68,.71,1.51,1.39,.02-.56,1.75-.5,2.56,.08-.16,.08-.17,.39-.17,.54,1.33,1.43,1.74,2.44,2.85,3.84-.03,.24,.3,1.05-.15,.93,.24,.14,.57,.19,.9,.63,.13,1.19-.78-.94-.89,.12,.38-.19,1.25,.84,1.87,1.38,.39-.53-.88-1.61-1.56-2.08,.68-.51,2.23,.11,3.59,1.58,.96,1.23-.13,.86,.1,1.03,.67,1.27,1.24,1.66,1.79,2.01,.54,.35,.98,.7,1.23,1.92-.08,1.09-.95,.49-1.21,.84-.72-1.02-.5-1.86-.92-2.6,.08,.35,.18,.69,.25,1.03-.33-.28-.84-.93-.91-1.4-.02,.89,2.07,4.33,2.41,6.55,.31,.29,.73,.85,.82,.48l-.33-.62c.17-.75,1.04,1,.91,.11,.61,.77,1.45,1.6,1.63,2.94l-.5,.43c.16-.08,.07-.94-.23-1.23,.44,.44-.14,2.18,.8,2.5l.12-1.01c.59,.8,1.56,1.74,1.71,2.93,.43-.69-.13-.24,.3-1.25-.62,.95-.87-2.91-1.4-1.51,.5-1.08-.13-1.53,.14-2.84-.18,.1-.23,.51-.48-.47-.07-.02-.18-.1-.24-.15v0c-.06-.03-.06-.03-.01,.02,0,.26-.04,.47-.11,.59-.59-.31-1.15-1.79-1.58-2.2-.13-.58,.31,.14,.39-.24l-.63-.61c.38-.24,.05-1.75,.86-.55l-.49-1.18c-.06-.79-.44-1.77-.88-2.27-.17-.59-1.15-1.13-.58-.83-.4-.55-.77-1.11-1.2-1.64l.09-.07c-.93-1.79-2.74-3.08-3.47-5.38-.53-.45-1.02-.94-1.7-1.86l.14-.42c-.66-.58-1.56-2.2-2.12-2.17,.04-.73-.78-1.48-1.69-2.21-.48-.34-.99-.67-1.45-.98-.47-.29-.89-.57-1.19-.83l-.33,.39c-.87-.61-1.82-1.03-3.05-1.49l-.15,.43c-1.14-.2-2.37-1.63-4.01-2.27,.18-.11,.57,.11,.81,.34-1.53-1.81-4.33-1-5.84-2.27-.49,.01-.8-.15-1.07-.36,.04,.01,.08,.02,.12,.01-.04-.02-.11-.04-.18-.06-.17-.14-.35-.28-.55-.42,.15,.16,.31,.3,.45,.39-.35-.1-.88-.2-1.42-.25l-.08-.53-.12-.02c-.45-.31-.47,.1-.3,.53-.28,0-.54,.03-.75,.09-.19-.87-1.4-.12-1.74-1.07-.45,.29-2.64-.37-3.11,.39,0-.11-.13-.2,.15-.14-.54-.24-1.08-.47-1.64-.36l-.1-.65-1.42,.5c-.66-.54-.92-.83-.07-1.11-1.96,.28-1.51-.08-3.2,.25l.17-.37c-.54-.12-1.53,.18-1.78-.22-1.02-1.02-5.93-1.64-8.62-3.39,.17,1.3-1.17-.99-1.6-.2-.07-.32-.41-.63,.14-.67-1.57-.33-1.99-1.3-3.28-1.07-.04-.33,.48-.22,.4-.44-.14,0-.55,0-.62-.21-.07-.21,.31-.11,.58-.11-1.42-.64-1.95,0-2.44,.66-.54-.73-.9-.88-1.69-.73-.11-.38-.36-.85,.53-.41-.23-.16-.9-.69-1.55-1.14-.64-.46-1.27-.82-1.48-.59-.04-.24-.59-.52-.75-.55-.94-.84-1-.93-1.93-1.74l.18,.31c-.89,.22-.88-.58-1.63-1.25l.08-.03c-.58-1.02-.75-1.19-.96-1.33-.21-.14-.39-.31-.81-1.39l-.31,.38c-.49,.23-.66-.29-.82-.95-.18-.65-.26-1.48-.77-1.95v.54c-.35-.22-.26-.85-.1-1.46,.14-.61,.41-1.23,.35-1.56,.03-.17,.22,.16,.35,.32-.06-1.82-.7,.05-1.26-1.15,.25-.33,.91,.01,.71-.81,.05-.23-.33-.75-.73-1.4-.34-.66-.66-1.48-.34-2.06-.25,.26-.49,.55-.72-.04-.1-.46,.19-1.1,.37-1.69,.19-.59,.37-1.15,0-1.64,.1-.1,.17-.13,.24-.12-.01-.36,0-.95,.06-1.5,.07-.55,.08-1.1-.04-1.39,.91-.02,1.13-1.08,1.47-2.09,.35-1,.74-1.94,1.35-1.44l.65-.86,.73-.8,.07,.15c.52-.43,.85-.74,1.04-1.08,.21-.3,.31-.58,.42-.87,.33-.09,.2,.16,.23,.24,.45-.23,.83-.33,1.12-.46,.3-.12,.52-.26,.74-.36,.44-.23,.77-.63,1.54-1.16l.27,.45c.18-.22,.96-.09,1.79,.01,.38,.08,.8,.19,1.22,.3,.4,.1,.86,.24,1.14,.22-.04,.04-.11,.11-.22,.14,.34,0,.66,.23,.8,.53,.16,.31,.13,.67,.03,.94-.22,.55-.43,.71,.15,1.45-.12,.41-.36,.89-.63,1.33,.75-.63,.82-.47,.84-.15,0,.31-.1,.76,.31,.55-.53,.69-1.99,1-1.27,.29l.18-.03c-.18-.46-.72-.12-1.25,.27-.51,.42-1.14,.75-1.29,.48-1.56,1.17-3.43,1.78-5.24,2.25-.93,.16-1.84,.38-2.77,.42-.46,.03-.91,.12-1.37,.12l-1.37,.04,.45,.71c-.44,0-.87,.05-1.3,0-.34-.19-.44-.58,.46-.53-.47-.41-1.53,.3-1.58,.46-1.78-.35,.75-.83,.19-.86l-.73,.03,.16,.09c-.62,.27-.7,.54-1.81,.38-.68-.23-.29-.49-.55-.55,0-.05-.08-.09-.4-.11l-1.55-.39,.5,.7c-.78,.15-1.49-.41-.92,.44-.41-.68-1.87-1.12-3.22-1.73-.69-.25-1.34-.57-1.86-.84-.51-.27-.91-.47-1.01-.64-1.06-.19-1.97-.7-2.89-1.54,.17,.28-.07,.92-.9,.18,1.13-.75-1.13-1.76-1.01-3.06,.04,1.02-2.11-2.17-2.01-.68-.47-.79,.35-.36,.2-1.09-.41-.35-.79-.76-1.12-1.25-.3-.5-.57-1.04-.84-1.59-.48-1.14-.92-2.35-1.48-3.53-.18,.03-.25,.54-.72,.11,.07-.54,.21-1.08,.34-1.62-.24-.45-1.13-.13-.84-1.23-.11,.17-.26,.43-.41,.11-.34-2.63-.94-5.21-1.17-7.9-.23-2.68-.06-5.46,1.14-7.93-.46,.65-.41,.18-.33-.37-.14,.34-.43-.08-.67-.05,.35-.7,.68-1.4,1.08-2.07-.28-.27-.15-.86-.02-1.42,.15-.56,.31-1.09,.04-1.29l-.1,.71c-.22-.56-.71-.36-1.27-.05-.55,.31-1.12,.75-1.57,.56,.29,.66-.22,1.29-.62,2.07-.4,.78-.83,1.68-.31,2.69-.24,.39-.27-.39-.51-.2,.36,.53,.35,1.09,.09,2.14l-.09-.13c-.04,1.5-.17,2.56-.27,3.68C.06,14.21-.02,15.39,0,17.1l.44-.3c.03,.73-.1,.9-.17,1.25,.82,.73-.22-2.04,.66-1.37-.4,.52-.31,1.8-.07,3.03,.11,.61,.21,1.22,.24,1.72,.05,.5,0,.91-.21,1.14,.29,1.1,.44-.46,.73,.63l-.21,.37,.44,.16c.18,.71-.05,1.19-.28,1.3-.03-.18-.23-.47-.32-.65,0,.52,.24,1.16,.5,1.72,.27,.55,.57,1,.58,1.18l-.26-1.09c.37,.7,.71,1.44,1.06,2.21,.4,.74,.78,1.52,1.2,2.27,.46,.73,.91,1.46,1.42,2.12,.54,.64,1.08,1.24,1.66,1.74,0-.1,.02-.21,.03-.32,1.82,1.43,.94,1.59,2.93,3.19l-.1-.02c.26,.09,.53,.23,.8,.4,.28,.15,.56,.34,.82,.56-.67-.19,.64,1.14-.2,.85,1.13,.62,1.46,.67,1.7,.67,.24,0,.43-.1,1.33-.03l.13,.52c.63,0,.78-.16,1.89,.32-1.04-.17,.45,.87-.75,.72,.98,1,2.02,1.15,2.81,1.3,.79,.18,1.42,.2,1.83,.96,1.44-.63-1.99-1.21-1.27-1.24-.2-.27,.09-.34,.52-.34,.44,0,1.01,.08,1.38,.25,.75,.27,1,1.65,3.11,2.05-.21-.03-.24,.03-.44-.01,.75,.41,1.6-.14,2.52,.41,.59-.56,1.28,.09,1.46-.68-.64,.04-1.29,.09-1.93,.05,.55-.02,1.1-.27,1.72-.46,.62-.2,1.29-.23,2.17-.08-.13,.16-.65,.43-1.02,.51,.53,.27,1-.19,1.56,.03-.05,.39-.65,.49-1.37,.52-.72,0-1.57-.04-2.19,.24,.57,.36,2.28-.49,1.66,.34,.44-.52,.96-.49,1.57-.47,.6,.02,1.3,.13,1.97-.4l-.04,.49c.22-.11,.67-.4,1.09-.45l-.68,.73c.56-.35,1.14-.32,1.74-.27,.59,.02,1.2,.03,1.73-.25-2.37,.62-.67-.42-1.73-.51,2.65-1.35,1.98,.88,5.13-.57-.41,.25-1.73,.35-1.13-.1,.31-.07,.7-.12,1.04-.19,.34-.07,.67-.12,.91-.09,1.99-1.11-.53-.28,.2-.97,.47,.09,.69-.09,.88-.36,.18-.3,.32-.69,.66-1.03l.27,.4c1.15-.57,1.15-.87,1.09-1.16-.04-.28-.11-.53,.85-1.1l-.3,1.13,.8-.9,.17,.57c.37-.58,.64-.9,.95-1.24,.16-.16,.32-.32,.52-.51,.21-.2,.38-.35,.72-.76-.27,.08-.4-.1-.39-.44,.01-.34,.17-.82,.42-1.46,.3-.41,.36-.27,.44-.24,.04,.02,.19-.09,.3-1.14,.26,.45,.54,1.16-.28,1.92,.12,.14,.06,.56,.14,.73,.39-.41,.7-1.03,.84-1.66,.15-.63,.13-1.27,.09-1.74-.02-.14-.05-.27-.06-.38,0,.13,.03,.26,.02,.39-.01,.21-.04,.41-.09,.53-.03-.18-.06-.35-.1-.52-.25-.91-.7-1.73-1.33-2.36-.11-.49,.23-.27,.56,.03-.37-.56-.84-.8-1.55-1.39,.23-.06,.42-.17,.68-.15,.26,.03,.65,.17,1.17,.75-.77-.88-1.76-1.51-2.8-1.91-.05-.13-.38-.44-.66-.67-.23-.23-.41-.4-.21-.4-.72-.4-1.72-.46-2.73-.37-.49,.05-1.06,.11-1.5,.2-.46,.08-.91,.13-1.37,.1-.08,.08-.26,.17-.62,.31-.82,.13-1.63,.17-2.43,.43-.82,.19-1.59,.65-2.31,1.33-.42,0-.86,0-1.31,.02-.61,.5-.15,.46,.19,.52,.35,.07,.54,.17-.34,1.02-1.17,1.27-.88-.05-1.49,.21-.21,.43-.43,1.06-.79,1.64-.32,.61-.78,1.2-1.46,1.68,.18-.51,.55-.75,.81-1.17Zm-3.66,16.78c-.18-.3-.64-.91-.38-1.21,.6,.29,.4,.61,.38,1.21Zm16.89,17.73c-.28,.04-.56-.2-.83-.55,.28,.1,.56,.27,.83,.55Zm58.11,29.15s-.02-.01-.04-.02c-.13-.72-.09-.46,.04,.02Zm.4,1.42c.12,.11,.18,.07,.21-.01-.15-.04-.29-.34-.41-.7-.07,.15-.08,.35,.19,.71ZM24.77,40.53c.08,.06,.15,.11,.23,.17-.59,.04-.41-.07-.23-.17Z"/><path class="cls-1" d="M39.19,66.79c-.04-.11-.01-.2,.02-.29-.15,0-.2,.09-.02,.29Z"/><path class="cls-1" d="M38.44,27.06h.06s.04-.06,.05-.09l-.11,.09Z"/><path class="cls-1" d="M84.35,83.5c-.18-.21-.26-.37-.29-.51-.08,.09-.03,.24,.29,.51Z"/><path class="cls-1" d="M103.93,105.04l-.41-.84c.17,.42,.12,.6,.11,.84,.1-.05,.2-.27,.3,0Z"/><path class="cls-1" d="M103.2,113.46c.09,.11,.07,.27,.16,.38l.21-.09c-.15-.54-.42-.88-.37-.29Z"/><path class="cls-1" d="M102.65,106.33c-.37,.19-.06,.69,.19,1.28-.01-.04-.03-.07-.03-.11,.6,.02,.22-.58-.16-1.17Z"/><path class="cls-1" d="M102.9,107.75c.07,.18,.14,.37,.17,.56,.24,0-.02-.24-.17-.56Z"/><path class="cls-1" d="M101.43,99.72c.02,.33,.55-.01,.46,.21,.61,.13-1.34-1.69-.46-.21Z"/><polygon class="cls-1" points="101.53 107.22 101.94 106.85 101.45 106.63 101.53 107.22"/><path class="cls-1" d="M100.29,102.37l.22,1c.07-.04,.16,.06,.25,.2-.2-.59-.34-1.27-.47-1.2Z"/><path class="cls-1" d="M100.76,103.57c.1,.31,.2,.6,.34,.74-.06-.16-.19-.52-.34-.74Z"/><polygon class="cls-1" points="100.98 105.95 100.98 105.63 100.79 104.95 100.98 105.95"/><path class="cls-1" d="M95.73,92.48c-.22-.3-.48-.58-.71-.86-.21,0-.13,.31,.15,.62,.25,.16,.51,.48,.57,.25Z"/><path class="cls-1" d="M96.14,96.04c-.04-.31,.05-.38,.12-.6l-.56,.26,.45,.34Z"/><path class="cls-1" d="M94.49,93.37c-.19-.02-1.24-1.05-.49,.07,.2,0,.86,.86,.49-.07Z"/><polygon class="cls-1" points="83.93 81.17 84.17 81.31 84.69 80.43 83.93 81.17"/><path class="cls-1" d="M69.95,77.78c1.14,.6,.47-.51,1.47,.11,.36-.14-.82-.51-.47-.62-.81,.02-1.15-.23-1.01,.51Z"/><path class="cls-1" d="M70.95,77.27c.13,0,.27-.01,.42-.03-.23,0-.35,.01-.42,.03Z"/><polygon class="cls-1" points="5.67 3.01 6.11 2.32 5.63 2.71 5.67 3.01"/><path class="cls-1" d="M5.39,1.34l.67,.02-.42-.64c-.02,.18-.07,.53-.25,.62Z"/><path class="cls-1" d="M24.57,52.75l.17,.02c.1-.2,.05-.42-.07-.86l-.11,.84Z"/><polygon class="cls-1" points="24.64 39.5 24.56 39.72 25.25 39.49 24.64 39.5"/><path class="cls-1" d="M30.33,29.68c-.39,.3-.76,.75-1.1,1.09,.68-.83,1.68-.6,1.1-1.09Z"/></g><g><path class="cls-1" d="M123.3,121.26c.09,0-.13-.37-.15-.44-.08,.15,.2,.53,.15,.44Z"/><polygon class="cls-1" points="122.55 122.74 122.49 122.58 122.52 123.04 122.55 122.74"/><path class="cls-1" d="M121.46,123.37c.47,.55,.33-.33,.66-.22l.11,.12-.2-.55c-.19,.22-.3,.72-.57,.65Z"/><path class="cls-1" d="M120.08,122.4c.18,.21,0,.28,.18-.01l-.06-.04s-.05,.04-.12,.06Z"/><path class="cls-1" d="M120.2,122.35c.11-.09-.2-.15,0,0h0Z"/><path class="cls-1" d="M119.75,122.82l.02-.31c-.12-.12-.28-.06-.29-.2-.09,.21,.04,.33,.27,.5Z"/><path class="cls-1" d="M119.88,123.35l.02-.14c-.05-.05-.08-.06-.02,.14Z"/><path class="cls-1" d="M119.95,122.92l-.05,.29c.08,.08,.21,.28,.03-.12,.1,.19,.02,0,.01-.18Z"/><path class="cls-1" d="M120.1,122.95c.17,.08,.33,.09,.31,.4,.23-.26-.07-.67-.31-.4Z"/><path class="cls-1" d="M121.79,124.03l.22,.11-.03-.26c.01,.13-.31-.04-.19,.15Z"/><path class="cls-1" d="M118.6,123.12c.08,.13,.28,.3,.4,.46v-.22c-.1-.05-.26-.05-.4-.24Z"/><path class="cls-1" d="M119,123.58l-.02,.33c.16-.07,.12-.2,.02-.33Z"/><polygon class="cls-1" points="120.29 124.03 120.26 123.4 120.24 124.07 120.29 124.03"/><polygon class="cls-1" points="117.96 123.54 117.85 123.19 117.99 123.74 117.96 123.54"/><path class="cls-1" d="M117.58,123.88c-.1-.29-.38-.33-.41-.53-.08,.13-.03,.4,.02,.64,.02-.17,.13-.21,.4-.11Z"/><path class="cls-1" d="M117.23,124.37c0-.09-.02-.22-.05-.37,0,.09,0,.2,.05,.37Z"/><path class="cls-1" d="M118.66,124.04c-.06-.07-.23-.25-.37-.27l.31,.31,.07-.04Z"/><path class="cls-1" d="M118.6,124.08h-.01l-.15,.07,.16-.07Z"/><path class="cls-1" d="M118.68,124.03h-.02s.04,.05,.02,0Z"/><path class="cls-1" d="M119.65,123.98c.04,.26-.01,.61,.37,.78-.09-.29-.32-.39-.37-.78Z"/><path class="cls-1" d="M119.06,124.41l.23-.04c-.07-.09-.19-.21-.21-.34l-.02,.37Z"/><polygon class="cls-1" points="119.05 124.58 119.06 124.41 118.98 124.43 119.05 124.58"/><path class="cls-1" d="M117.76,124.47c.04,.2-.03,.28-.11,.37,.15,0,.27-.04,.36-.11-.07-.12-.16-.34-.26-.26Z"/><path class="cls-1" d="M118.19,124.31v.03s.04,.03,0-.03Z"/><path class="cls-1" d="M116.77,125.49l.06,.05-.04-.06h-.02Z"/><path class="cls-1" d="M118.08,124.78c.12,.01,.1-.1,.07-.24-.03,.07-.07,.14-.13,.19,.03,.05,.05,.09,.06,.05Z"/><path class="cls-1" d="M117.1,124.71c.09,.04,.18,.07,.27,.1-.12-.08-.32-.19-.27-.1Z"/><path class="cls-1" d="M118.09,124.26v-.02c-.08-.06-.05-.02,0,.02Z"/><path class="cls-1" d="M118.09,124.26c0,.08,.03,.18,.05,.28,.03-.06,.04-.12,.04-.2-.03-.02-.06-.05-.09-.08Z"/><path class="cls-1" d="M118.21,127.86c-.23-.32-.28-.75,.13-.53-.03-.35-.92-1.31-1.5-1.78,.1,.14,.2,.27,.18,.58,.19,.12,.66,.12,.75,.51-.08,.33-.25,.02-.48-.06,.39,.32,.18,.77,.68,1.31l.02-.34c.07,.09,.12,.28,.23,.32Z"/><path class="cls-1" d="M117.17,125.34l.04-.09c-.12,0-.27-.08-.56-.25,0,.24,.07,.38,.14,.48l.37-.21v.06Z"/><path class="cls-1" d="M117.51,125.02c.2,.39,.15,.65,.53,.95,.18-.17-.08-.39-.07-.63-.26,.32-.05-.26-.43-.29,.02-.11,.06-.17,.11-.22-.09,0-.18,0-.28-.03l.02,.02h0s.07,.06,.04,.05c0,0,0,.01,0,.01,.03,.05,.06,.1,.08,.14-.15,0-.08-.08-.08-.14l-.03-.05h0l-.18,.43c.1,0,.18-.08,.3-.23Z"/><path class="cls-1" d="M120.36,125.65s-.05-.05-.07-.08c0,.06,.02,.09,.07,.08Z"/><path class="cls-1" d="M120.09,125.53c-.01-.07-.09-.22,.01-.24,.14,.06,.11,.17,.2,.29-.02-.13-.01-.37-.27-.44v.06c-.2-.04-.67-.36-.68-.43,.26,.29,.45,.5,.74,.76Z"/><path class="cls-1" d="M118.86,125.35l-.14,.36,.35,.21-.14-.18c.2-.03,0-.24-.07-.39Z"/><polygon class="cls-1" points="116.61 125.35 116.37 124.96 116.61 125.59 116.61 125.35"/><polygon class="cls-1" points="116.3 125.66 116.07 125.34 116.13 125.6 116.3 125.66"/><path class="cls-1" d="M102.11,133.91h-.14c.05,0,.1,0,.14,0Z"/><path class="cls-1" d="M102.44,134.46l.17-.09c-.11,.03-.18,.07-.17,.09Z"/><path class="cls-1" d="M109.12,132.92c-.28-.24-.65-.7-.37-.33l.28,.35c-.03-.09,.01-.07,.09-.01Z"/><path class="cls-1" d="M107.13,138.13l-.02,.27,.15-.62-.13,.35Z"/><path class="cls-1" d="M106.52,141.11l-.02-.72c0,.22,0,.45,.02,.72Z"/><path class="cls-1" d="M99.68,131.4l-.41,.2c.1,.12,.23-.07,.41-.2Z"/><path class="cls-1" d="M113.05,128.73c-.21-.03-.33-.02-.4,.03,.28,.07,.63,.26,.4-.03Z"/><path class="cls-1" d="M106.08,131.57c-.1,0-.19,.02-.27,.08,.1,0,.19,0,.27-.08Z"/><path class="cls-1" d="M112.39,129.02s.08,.02,.12,.03c.01-.12,.04-.22,.14-.28-.21-.05-.38-.04-.25,.25Z"/><path class="cls-1" d="M90.69,122.73s0-.04,0-.06c-.03,.05-.03,.06,0,.06Z"/><path class="cls-1" d="M89.62,117s.11,.03,.16,.05c-.01-.04-.06-.06-.16-.05Z"/><path class="cls-1" d="M114.82,126.64c.05-.08-.02-.05,0,0h0Z"/><path class="cls-1" d="M116.27,127.66s.05,.11,.11,.18c-.06-.08-.1-.14-.11-.18Z"/><path class="cls-1" d="M113.7,131.54h0c.08,.04,.06,.04,0,0Z"/><path class="cls-1" d="M115.05,126.7c-.06-.02-.12-.03-.17-.02,.04,.01,.09,.02,.17,.02Z"/><path class="cls-1" d="M114.91,126.55l.09-.02c-.04-.06-.08-.09-.09,.02Z"/><path class="cls-1" d="M114.74,126.74s.09-.06,.14-.06c-.03-.01-.05-.02-.06-.04-.02,.02-.04,.05-.08,.1Z"/><path class="cls-1" d="M96.77,126.06v-.04c-.17,.07-.12,.08,0,.04Z"/><path class="cls-1" d="M110.15,139.37v-.04h-.02l.02,.04Z"/><path class="cls-1" d="M109.98,140.26c-.05-.96,.03-.94,.16-.93-.17-.51-.34-1.03-.5-1.57,.13,.8,.25,1.64,.35,2.5Z"/><path class="cls-1" d="M101.13,132.74l-.2,.4c-.66,.17-.59-.09-.92,.38,1.12-.78,.56,.56,1.69-.2l-.16,.28s-.08,0-.09-.04c-.38,.59,.92-.4,.96,0-.02,.16-.13,.34-.31,.36l.43,.03c.02,.08-.19,.19-.21,.12l.31,.29-.04,.02c.21-.07,.56-.13,.71-.15-.11,.19-.15,.03-.28,.15l.4,.02c-.25,.27-.64,.29-.68,.13-1.03,.91,.39-.02-.04,.78l-.26-.09c-.29,.26-.35,.39-.38,.51,.01,.2,.11,.42,.04,.78,.08-.13,.19-.53,.35-.84,.17-.31,.42-.54,.67-.45-.02,.16,.04,.33,.36,.35-.38,.3-.17,.42-.02,.66l-.49,.43c.3,.17,.52-.09,.82-.15,.11,.34-.2,.81-.45,1.24,.21,.62,.36-1.02,.76-.53,.05,.62,.38,.69,.84,.72,.01,.5-.25,.38-.3,.67,.14-.1,.28-.21,.42-.32,.02,.07-.07,.23-.12,.31,.21-.02,.36-.71,.6-.62,.2-.38,.13,.06,.11,.56-.03,.5-.01,1.08,.26,.71-.03,.35-.19,.51-.29,.88,.49-.19,.4-.05,.86-.75l.02,1.03c.05-1.05,.4-1.64,.62-2.26l.08-.99c.08-.08,.15-.17,.22-.27-.01,.2-.08,.54-.17,.91l.06-.19c0,.47-.13,1.09-.27,1.63l.05-.82c-.15,.6-.33,1.23-.44,1.89,.04-.1,.08-.15,.12-.15-.04,.16-.08,.3-.09,.42-.01,.13,.05-.06,.13-.28l-.15,1.37,.09-.48,.19,1.47c.32-.75,.6-2.07,.83-2.71,.05-.25,.1-.46,.15-.64-.12,1.21-.09,1.82-.15,3.12-.02-.44-.06-.42-.12-.2-.09,.11-.24,.54-.34,.15,.08,.33,.01,.89-.03,1.05,.12-.15,.23-.27,.33-.5l.07-.32c-.06,1.09,.04,.67,.13,.93,0-1.96,.31-1.83,.45-2.66,.01,.63-.02,1.36-.21,1.51,.1,.58,.18-.13,.23-.83,.06-.7,.1-1.39,.2-.95-.04,.08-.06,.02-.07,.37,.08-.72,.33-.67,.31-.06l-.04,.09c.32-.29,.96-1.55,.74-2.81,.04,.15,.25,1.56,.27,1.85-.06-1.72-.23-3.32-.45-4.57,.11,.46,.34,1.17,.57,1.92,.22,.73,.41,1.44,.34,1.94,.11,.02,.27,0,.33-.58-.1-.03-.54-1.13-.5-1.31,.5,.73,.29,.37,.83,.8-.15-.06-.58-1.49-.47-1.59,.07,.21,.56,1.21,.57,1.41-.07-.58-.17-1.12-.28-1.62,.04,.3,.48,.98,.73,1.18-.16-.17,.3-.38,.33-.61l-.29-.04c.48-.37-.64-1.83-.35-2.11,.14,.2,.89,1.21,1.18,1.06-.16-.27-.57-.88-.99-1.43-.43-.54-.84-1.08-.89-1.37l.3,.15-.11-.46c.28,.35,.69,.91,1.09,1.45l.56,.79c.17,.25,.25,.53,.33,.72,.17,0,.25,.04,.32,.06,.05,.03,.17-.07,.21-.14,.15,.07,.22,.16,.25,.25,.06,.05-.06,.26-.06,.29,.05-.04,.16-.15,.2-.17l.12-.07,.24-.13c-.54-.41-.27-.73-.72-1.07l.18,.88c-.54-.4-1.28-1.45-.94-1.68,.27,.1,.87,.82,1.05,.96-.15-.18-.12-.56,.03-.48l.17,.35c.32,0-.46-.83,.19-.6,.09-.04,.82,.38,.53,.11-.67-.4-2.48-1.94-2.84-2.39,.06,0,.87,.12,1.22,.3,.54,.29,.92,1.12,1.39,1.37-.13-.13-.25-.34-.28-.41,.18,.04,.4,.41,.47,.21-.48-.48,.32-.25-.36-.46-.01-.27,.24-.06,.38-.24-.37-.25-.95-1.17-.95-1.46,.12,.13,.31,.25,.4,.31,.32-.26,.7-.19,.97-.45,.14,.09,.41,.11,.56,.37-.05-.12-.17-.32-.1-.42,.57,.26-.12,.25,.5,.63-.27-.29-.17-.6-.23-.89-.46-.41-.35,.19-.3,.48-.59-.6-1.01-1.43-.98-2.01,.1-.37,.48,.3,.44,.17,.54-.3-.62-1.44,.17-1.34,.51,.26,.72,.79,1.01,1.05-.05,.33-.52,.02-.64,.16l.33,.04c.06,.19,.03,.4-.15,.35,.45,.24,.8-.62,1.45-.58-.06-.19-.07-.42-.26-.54l-.06,.15c-.39-.24-.18-.63-.46-.67-.05-.36-.18-.88,.19-.87l.43,.44c-.12-.13-.37-.16-.31,.03-.08-.29,.86,.36,.45-.34l-.42-.2c-.04-.36-.25-1.03,.07-1.04-.47-.4,0,.09-.59-.35,.68,.59-.54,.38,.25,.94-.67-.52-.47-.06-1.11-.44,.14,.15,.32,.24,.09,.3,.03,.05,.06,.12,.08,.17h0s.02,.04,0,.01c.1,.03,.2,.09,.28,.16,.22,.42-.05,.63,.02,.89-.16,0-.11-.21-.31-.33l.11,.38c-.31-.33-.75-.34-.7-.73l-.22,.16c-.29-.08-.52,0-.49,.23-.16,.02,.1,.59-.06,.25l-.12,.49-.08-.08c-.36,.24-.1,1.13-1.02,.89-.02,.18-.03,.38-.29,.46l-.31-.24c-.03,.23-.66,.13-.42,.47-.9-.57-.79,.49-1.13,.62l.37,.35c-.17,.15-.2,.4-.23,.74l.35,.28c.13,.41-.64,.24-.84,.57-.12-.13-.02-.17,.1-.16-.53-.15-.54,.15-.51,.47,.01,.16,.03,.32,0,.43,.02,.05-.04,.07-.2-.02,.09,.15,.03,.14-.06,.07,0,0,0-.01-.01-.03,0,0-.01,0-.01,0l-.19-.14c.08,.07,.15,.13,.19,.15-.01,.03,0,.11,.04,.24l-.32-.38v.02c-.13-.12,.12,.22,.37,.5,.03,.09,.08,.19,.13,.31-.48-.65,.05,.37-.45-.35,.2,.41,.01,.49,.37,1.44-.05-.12-.09-.15-.07-.19-.09-.03-.17-.08-.12,.25l-.26-.67c.08,.35,.15,.72,.21,1.11-.2-.35-.28-.61-.39-1.25,.12,1.07,0,.46,.08,1.6l-.09-.55c-.03,.07,.01,.93-.08,.51-.12-.46-.22-.36-.34-.21-.11,.15-.25,.36-.31-.15-.03,1.55-.05,.39-.07,.31-.01-.02-.02,.04-.05,.51,.02-.55,.03-.88,.07-1.3-.1,.36,0-.96-.19,.29l.12-.97c-.01,.1-.07,.38-.04,.08,.03-.29,.06-.38,.09-.58-.02,0-.08,.35-.17,.86l-.29,1.82c.04-.73,.02-.66-.17,.05,.05-.45,.11-.91,.19-.94-.02-.15-.05-.92-.3-.05,.05-.25-.03-.16-.07-.08-.07-.21-.05-.3-.16-.38l-.02,.17c-.39,.86-.16,.05-.27,.03l.04-.08c.14-.9-.23,.12-.03-.8l-.28,.48c-.31,.48-.28,.24-.19-.06,.09-.31,.24-.66,.06-.59l-.15,.29c-.15,.09,.04-.27,.3-.64,.26-.37,.58-.74,.62-.81,.06-.07,.12-.08,.17-.12,.39-.53-.47,.42-.67,.39,.25-.23,.69-.53,.7-.62,.08-.12-.1,.1-.38,.08-.29-.03-.55-.11-.36-.41-.18,.2-.37,.39-.62,.37-.2-.14,.5-1.06-.3-.78,.04-.06,.09-.11,.15-.15-.28-.03-.62-.27-1.04-.1,1.27-1.08-1.27-.41-.02-1.3l-.39-.38,.13-.08c-.13-.33-.49-.21-.86-.08,.04-.13,.18-.17,.25-.21-.06-.58-.14-.59-.99-.44l.36-.34c-.29,.1,.14-1.05-.62-1.06,.05-.03,.13-.09,.2-.1-.78-.05,.16-1.92-1.33-.87l-.57,.03c.21,.44-.62,.48-.72,.82-.2-.06,.09-.71,.31-.61l-.04,.09c.75-.58-.14-.65,.33-1.08-.68-.62-.93-1.65-1.56-2.27l-.43,.6-.19-.24c.06-.18,.31-.49,.45-.32,.2-.38-.5,0-.61,.12-.11-.51,.7-.52,.62-.62l-.17-.08-.03,.09c-.31,.12-.53,.35-.69,.15-.02-.22,.24-.39,.21-.46,.03-.04,.03-.07-.06-.08l-.25-.3-.26,.53c-.32,.1-.25-.25-.55,.35,.47-.93-.84-1.19-.76-1.53-.45,.18-.63,.03-.82-.18-.02,.14-.39,.67-.53,.46,.9-1,0-.73,.43-1.63-.24,.62-.66-.31-.98,.59-.1-.21,.29-.41,.35-.76-.71,.13-.7-.91-1.3-1.13-.11,.14-.17,.42-.43,.56l.22-.91c-.15,0-.66,.78-.5,.15-.05,.14-.14,.35-.24,.36-.55-1.39-2.41-.68-2.69-2.67-.02,.38-.13,.36-.25,.31,.03,.11-.21,.38-.31,.6l-.14-.82c-.39,.54-.51-.22-.84,.32l.19-.03c-.52,.57-.5,1.61-.97,2.45,.6-.64-.07,1.38,.83,.49-.02,.21-.21,.24-.28,.45,.28-.32,.42-.34,.51-.07l-.07,.08c.55,.21,.57,.69,.98,1.24l.21-.43c.09,.13,.04,.26,.03,.4,.52-.53-.32-.24,.22-.84-.34,.91,.83,.55,.35,1.54,.18,.12,.25-.49,.42-.37l-.11,.28,.26-.29c.08,.13-.06,.48-.2,.69-.01-.04-.12,0-.16,0-.04,.39,.49,.17,.48,.31l-.07-.26c.64,.1,.98,.83,1.8,.67l.1-.2c.6-.07,.13,.41,.62,.55l-.05,.03c.21-.12,.38-.13,.47-.03-.26,.13-.14,.54-.44,.67,.64-.06,.4-.13,1.17-.59l-.18,.33c.3-.19,.41-.32,.66-.24-.35,.12-.24,.53-.68,.72-.14,.94,1.1-.14,.5,.91,.85-.63,.04-.71,.28-.8,.13-.33,.64-.46,.7-.28,.11,.13-.65,1.16-.34,1.42-.03-.03-.08,.03-.11,0-.07,.3,.45-.06,.3,.38,.49-.39,.15,.19,.71-.37l-.4-.12c.29-.01,1.07-.55,1.02,.01-.13,.1-.35,.18-.48,.22-.09,.24,.25,.02,.16,.27-.57,.56-.45-.18-1.02,.11-.15,.32,.7-.14,.03,.42,.86-.69,.19,.36,.96-.06l-.34,.33c.08-.03,.3-.13,.35-.06l-.53,.35c.53-.23-.03,.62,.32,.56-.31-.3,.33-.48,.45-.86,.83-.06-.65,1.1-.08,1.36-.1,0-.01-.42,.24-.48,.01,.15-.01,.38-.14,.61,.35,.21,.31-.38,.64-.47-.32,.5,.31-.02,.57-.02l-.35,.33c.08,.55,.81-.6,.82-.04l-.61,.33,.27,.04-.43,.34c.45-.1,.43,.02,.47,.29,.22-.27,.67-.56,.82-.42-.12,.29-.39,.25-.15,.41-.27,.15-.6,.35-.35-.04-.13,.1-.27,.15-.39,.25-.15,.33,.19,.32,.26,.4-.01-.04-.03-.09,.01-.16l.78-.13c-.1,.17-.24,.22-.38,.28,.09,.03,.3-.07,.41,0-.32,.23-.62,.5-.87,.49l.58,.02c-.11,.13-.23,.46-.37,.51-.04,.31,.92-.08,.87,.33,.07-.04,.14-.06,.23-.05,.1,.27-.14,.75,.48,.68l-.45,.57c.28,.1,.55-.73,1.02-.56,.36,.1-.41,.45-.51,.65,.37-.1,1.12-.32,.81,.24-.16,0-.11-.12-.21-.15Zm2.01,2.45c-.16-.07-.47,.04-.25-.16,.52-.22,.29-.09,.25,.16Zm3.96,5.12c-.06,.24-.09,0-.08-.42,.04,0,.07,.11,.08,.42Zm7.2-12.7v.02c-.23-.04-.14-.02,0-.02Zm.37-.05c-.02-.07-.07-.12-.12-.16,.06,.11,.02,.16-.06,.19,.1,.08,.19,.12,.19-.03Zm-16.41-4.53l-.04,.13c-.19,.01-.08-.06,.04-.13Z"/><path class="cls-1" d="M106.6,140.77c.01-.16,.04-.32,.07-.48-.04,.11-.07,.26-.07,.48Z"/><polygon class="cls-1" points="99.76 131.37 99.76 131.36 99.68 131.4 99.76 131.37"/><path class="cls-1" d="M114.31,133.68c-.09,0-.18-.04-.26-.08,.09,.08,.18,.13,.26,.08Z"/><path class="cls-1" d="M115.42,125.85l-.08,.22c.06-.08,.16-.02,.24,0-.08-.08-.21-.19-.16-.23Z"/><path class="cls-1" d="M118.6,127.14c-.01-.06,.04-.04,.03-.1l-.14-.17c-.09,.08-.04,.28,.11,.28Z"/><path class="cls-1" d="M116.58,126.97c.27,.3,.28,.12,.34-.02,0,0,0,.01-.02,.02-.32-.47-.32-.23-.32,0Z"/><path class="cls-1" d="M116.93,126.92s.05-.08,.09-.09c-.13-.19-.07,0-.09,.09Z"/><path class="cls-1" d="M114.81,127.09c.12,.04-.31-.42-.17-.32-.28-.44,.07,.76,.17,.32Z"/><polygon class="cls-1" points="117.5 127.94 117.15 127.58 117.35 127.94 117.5 127.94"/><path class="cls-1" d="M116.46,128.33l.25-.03c-.06-.06-.07-.12-.07-.17-.11,.07-.29,.09-.18,.2Z"/><path class="cls-1" d="M116.65,128.13c.06-.04,.1-.09,.08-.18-.02,.03-.08,.09-.08,.18Z"/><polygon class="cls-1" points="117.37 128.24 117.26 128.2 117.12 128.27 117.37 128.24"/><path class="cls-1" d="M114.68,129.8l-.07,.27c.1,.14,.22,.17,.23,.06-.04-.13-.03-.23-.17-.33Z"/><path class="cls-1" d="M116.13,130.33c-.12-.03-.19-.11-.33-.21l.42,.46-.08-.25Z"/><path class="cls-1" d="M115.75,130.88c.1,.14,.11,.58,.28,.36-.1-.14-.03-.4-.28-.36Z"/><polygon class="cls-1" points="112.81 132.81 112.84 132.76 112.07 132.09 112.81 132.81"/><path class="cls-1" d="M112.4,137.23c.44-.19-.35-.59,.09-.68-.11-.26-.36,.07-.44-.18,.02,.4-.16,.41,.35,.86Z"/><path class="cls-1" d="M112.06,136.37c0-.06-.01-.14-.03-.22,0,.11,.01,.17,.03,.22Z"/><polygon class="cls-1" points="89.27 116.2 89.21 115.92 89.16 116.28 89.27 116.2"/><path class="cls-1" d="M88.62,116.71l.25-.6-.36,.47s.15-.02,.11,.13Z"/><path class="cls-1" d="M102.54,136.73l.13-.08c.11-.16,.08-.23,.02-.38l-.16,.46Z"/><polygon class="cls-1" points="101.46 134.1 101.47 134.14 101.92 133.75 101.46 134.1"/><path class="cls-1" d="M99.78,133.03c.03,.07,.18,.07,.21,.14-.18-.07,.36-.6-.21-.14Z"/></g></g></svg>